<mxfile host="app.diagrams.net" agent="Mozilla/5.0 (Macintosh; Intel Mac OS X 10_15_7) AppleWebKit/537.36 (KHTML, like Gecko) Chrome/136.0.0.0 Safari/537.36" version="27.0.6" pages="5">
  <diagram id="INi-TdMHqP1IPeLA4web" name="表结构">
    <mxGraphModel dx="1430" dy="773" grid="1" gridSize="10" guides="1" tooltips="1" connect="1" arrows="1" fold="1" page="1" pageScale="1" pageWidth="827" pageHeight="1169" math="0" shadow="0">
      <root>
        <mxCell id="0" />
        <mxCell id="1" parent="0" />
        <mxCell id="FFxPaiSAMARXtlPJRVQ4-2" value="order_info" style="whiteSpace=wrap;html=1;" parent="1" vertex="1">
          <mxGeometry x="140" y="580" width="100" height="40" as="geometry" />
        </mxCell>
        <mxCell id="FFxPaiSAMARXtlPJRVQ4-3" value="order_detail_1" style="whiteSpace=wrap;html=1;" parent="1" vertex="1">
          <mxGeometry x="430" y="242" width="100" height="40" as="geometry" />
        </mxCell>
        <mxCell id="FFxPaiSAMARXtlPJRVQ4-5" value="order_detail_2" style="whiteSpace=wrap;html=1;" parent="1" vertex="1">
          <mxGeometry x="430" y="322" width="100" height="40" as="geometry" />
        </mxCell>
        <mxCell id="FFxPaiSAMARXtlPJRVQ4-6" value="" style="edgeStyle=elbowEdgeStyle;elbow=horizontal;html=1;rounded=1;curved=0;sourcePerimeterSpacing=0;targetPerimeterSpacing=0;startSize=6;endSize=6;" parent="1" source="FFxPaiSAMARXtlPJRVQ4-2" target="FFxPaiSAMARXtlPJRVQ4-5" edge="1">
          <mxGeometry relative="1" as="geometry">
            <Array as="points">
              <mxPoint x="335" y="478" />
            </Array>
          </mxGeometry>
        </mxCell>
        <mxCell id="FFxPaiSAMARXtlPJRVQ4-4" value="" style="edgeStyle=elbowEdgeStyle;elbow=horizontal;html=1;rounded=1;curved=0;sourcePerimeterSpacing=0;targetPerimeterSpacing=0;startSize=6;endSize=6;" parent="1" source="FFxPaiSAMARXtlPJRVQ4-2" target="FFxPaiSAMARXtlPJRVQ4-3" edge="1">
          <mxGeometry relative="1" as="geometry">
            <Array as="points">
              <mxPoint x="335" y="443" />
            </Array>
          </mxGeometry>
        </mxCell>
        <mxCell id="FFxPaiSAMARXtlPJRVQ4-7" value="order_detail_3" style="whiteSpace=wrap;html=1;" parent="1" vertex="1">
          <mxGeometry x="430" y="392" width="100" height="40" as="geometry" />
        </mxCell>
        <mxCell id="FFxPaiSAMARXtlPJRVQ4-9" value="" style="edgeStyle=elbowEdgeStyle;elbow=horizontal;html=1;rounded=1;curved=0;sourcePerimeterSpacing=0;targetPerimeterSpacing=0;startSize=6;endSize=6;entryX=0;entryY=0.5;entryDx=0;entryDy=0;exitX=1;exitY=0.5;exitDx=0;exitDy=0;" parent="1" source="FFxPaiSAMARXtlPJRVQ4-2" target="FFxPaiSAMARXtlPJRVQ4-7" edge="1">
          <mxGeometry relative="1" as="geometry">
            <mxPoint x="380" y="370" as="sourcePoint" />
            <mxPoint x="450" y="290" as="targetPoint" />
            <Array as="points">
              <mxPoint x="335" y="515" />
            </Array>
          </mxGeometry>
        </mxCell>
        <mxCell id="FFxPaiSAMARXtlPJRVQ4-10" value="promotion_info_1" style="whiteSpace=wrap;html=1;" parent="1" vertex="1">
          <mxGeometry x="430" y="500" width="100" height="40" as="geometry" />
        </mxCell>
        <mxCell id="FFxPaiSAMARXtlPJRVQ4-11" value="promotion_info_2" style="whiteSpace=wrap;html=1;" parent="1" vertex="1">
          <mxGeometry x="430" y="580" width="100" height="40" as="geometry" />
        </mxCell>
        <mxCell id="FFxPaiSAMARXtlPJRVQ4-12" value="" style="edgeStyle=elbowEdgeStyle;elbow=horizontal;html=1;rounded=1;curved=0;sourcePerimeterSpacing=0;targetPerimeterSpacing=0;startSize=6;endSize=6;exitX=1;exitY=0.5;exitDx=0;exitDy=0;" parent="1" source="FFxPaiSAMARXtlPJRVQ4-2" target="FFxPaiSAMARXtlPJRVQ4-11" edge="1">
          <mxGeometry relative="1" as="geometry">
            <mxPoint x="360" y="600" as="sourcePoint" />
          </mxGeometry>
        </mxCell>
        <mxCell id="FFxPaiSAMARXtlPJRVQ4-13" value="" style="edgeStyle=elbowEdgeStyle;elbow=horizontal;html=1;rounded=1;curved=0;sourcePerimeterSpacing=0;targetPerimeterSpacing=0;startSize=6;endSize=6;exitX=1;exitY=0.5;exitDx=0;exitDy=0;" parent="1" source="FFxPaiSAMARXtlPJRVQ4-2" target="FFxPaiSAMARXtlPJRVQ4-10" edge="1">
          <mxGeometry relative="1" as="geometry">
            <mxPoint x="360" y="600" as="sourcePoint" />
            <Array as="points">
              <mxPoint x="336" y="563" />
            </Array>
          </mxGeometry>
        </mxCell>
        <mxCell id="FFxPaiSAMARXtlPJRVQ4-14" value="promotion_info_3" style="whiteSpace=wrap;html=1;" parent="1" vertex="1">
          <mxGeometry x="430" y="650" width="100" height="40" as="geometry" />
        </mxCell>
        <mxCell id="FFxPaiSAMARXtlPJRVQ4-15" value="" style="edgeStyle=elbowEdgeStyle;elbow=horizontal;html=1;rounded=1;curved=0;sourcePerimeterSpacing=0;targetPerimeterSpacing=0;startSize=6;endSize=6;entryX=0;entryY=0.5;entryDx=0;entryDy=0;exitX=1;exitY=0.5;exitDx=0;exitDy=0;" parent="1" source="FFxPaiSAMARXtlPJRVQ4-2" target="FFxPaiSAMARXtlPJRVQ4-14" edge="1">
          <mxGeometry relative="1" as="geometry">
            <mxPoint x="370" y="600" as="sourcePoint" />
            <mxPoint x="440" y="530" as="targetPoint" />
          </mxGeometry>
        </mxCell>
        <mxCell id="FFxPaiSAMARXtlPJRVQ4-16" value="groupon_info_1" style="whiteSpace=wrap;html=1;" parent="1" vertex="1">
          <mxGeometry x="430" y="766" width="100" height="40" as="geometry" />
        </mxCell>
        <mxCell id="FFxPaiSAMARXtlPJRVQ4-17" value="groupon_info_2" style="whiteSpace=wrap;html=1;" parent="1" vertex="1">
          <mxGeometry x="430" y="846" width="100" height="40" as="geometry" />
        </mxCell>
        <mxCell id="FFxPaiSAMARXtlPJRVQ4-18" value="" style="edgeStyle=elbowEdgeStyle;elbow=horizontal;html=1;rounded=1;curved=0;sourcePerimeterSpacing=0;targetPerimeterSpacing=0;startSize=6;endSize=6;exitX=1;exitY=0.5;exitDx=0;exitDy=0;" parent="1" source="FFxPaiSAMARXtlPJRVQ4-2" target="FFxPaiSAMARXtlPJRVQ4-17" edge="1">
          <mxGeometry relative="1" as="geometry">
            <mxPoint x="360" y="840" as="sourcePoint" />
          </mxGeometry>
        </mxCell>
        <mxCell id="FFxPaiSAMARXtlPJRVQ4-19" value="" style="edgeStyle=elbowEdgeStyle;elbow=horizontal;html=1;rounded=1;curved=0;sourcePerimeterSpacing=0;targetPerimeterSpacing=0;startSize=6;endSize=6;" parent="1" target="FFxPaiSAMARXtlPJRVQ4-16" edge="1">
          <mxGeometry relative="1" as="geometry">
            <mxPoint x="240" y="600" as="sourcePoint" />
            <Array as="points">
              <mxPoint x="335" y="681" />
            </Array>
          </mxGeometry>
        </mxCell>
        <mxCell id="FFxPaiSAMARXtlPJRVQ4-20" value="groupon_info_3" style="whiteSpace=wrap;html=1;" parent="1" vertex="1">
          <mxGeometry x="430" y="916" width="100" height="40" as="geometry" />
        </mxCell>
        <mxCell id="FFxPaiSAMARXtlPJRVQ4-21" value="" style="edgeStyle=elbowEdgeStyle;elbow=horizontal;html=1;rounded=1;curved=0;sourcePerimeterSpacing=0;targetPerimeterSpacing=0;startSize=6;endSize=6;entryX=0;entryY=0.5;entryDx=0;entryDy=0;" parent="1" edge="1">
          <mxGeometry relative="1" as="geometry">
            <mxPoint x="251" y="600" as="sourcePoint" />
            <mxPoint x="431" y="936" as="targetPoint" />
            <Array as="points">
              <mxPoint x="335" y="771" />
            </Array>
          </mxGeometry>
        </mxCell>
        <mxCell id="FFxPaiSAMARXtlPJRVQ4-22" value="groupon_detail_1" style="whiteSpace=wrap;html=1;" parent="1" vertex="1">
          <mxGeometry x="705" y="836" width="100" height="40" as="geometry" />
        </mxCell>
        <mxCell id="FFxPaiSAMARXtlPJRVQ4-23" value="groupon_detail_2" style="whiteSpace=wrap;html=1;" parent="1" vertex="1">
          <mxGeometry x="705" y="916" width="100" height="40" as="geometry" />
        </mxCell>
        <mxCell id="FFxPaiSAMARXtlPJRVQ4-24" value="" style="edgeStyle=elbowEdgeStyle;elbow=horizontal;html=1;rounded=1;curved=0;sourcePerimeterSpacing=0;targetPerimeterSpacing=0;startSize=6;endSize=6;" parent="1" target="FFxPaiSAMARXtlPJRVQ4-23" edge="1">
          <mxGeometry relative="1" as="geometry">
            <mxPoint x="530" y="936" as="sourcePoint" />
          </mxGeometry>
        </mxCell>
        <mxCell id="FFxPaiSAMARXtlPJRVQ4-25" value="" style="edgeStyle=elbowEdgeStyle;elbow=horizontal;html=1;rounded=1;curved=0;sourcePerimeterSpacing=0;targetPerimeterSpacing=0;startSize=6;endSize=6;" parent="1" target="FFxPaiSAMARXtlPJRVQ4-22" edge="1">
          <mxGeometry relative="1" as="geometry">
            <mxPoint x="530" y="936" as="sourcePoint" />
          </mxGeometry>
        </mxCell>
        <mxCell id="FFxPaiSAMARXtlPJRVQ4-26" value="groupon_detail_3" style="whiteSpace=wrap;html=1;" parent="1" vertex="1">
          <mxGeometry x="705" y="986" width="100" height="40" as="geometry" />
        </mxCell>
        <mxCell id="FFxPaiSAMARXtlPJRVQ4-27" value="" style="edgeStyle=elbowEdgeStyle;elbow=horizontal;html=1;rounded=1;curved=0;sourcePerimeterSpacing=0;targetPerimeterSpacing=0;startSize=6;endSize=6;entryX=0;entryY=0.5;entryDx=0;entryDy=0;exitX=1;exitY=0.5;exitDx=0;exitDy=0;" parent="1" target="FFxPaiSAMARXtlPJRVQ4-26" edge="1">
          <mxGeometry relative="1" as="geometry">
            <mxPoint x="530" y="936" as="sourcePoint" />
            <mxPoint x="610" y="866" as="targetPoint" />
          </mxGeometry>
        </mxCell>
        <mxCell id="FFxPaiSAMARXtlPJRVQ4-29" value="" style="rounded=0;whiteSpace=wrap;html=1;fillColor=none;dashed=1;strokeColor=#99CCFF;" parent="1" vertex="1">
          <mxGeometry x="130" y="570" width="120" height="60" as="geometry" />
        </mxCell>
        <mxCell id="FFxPaiSAMARXtlPJRVQ4-30" value="主&lt;div&gt;单&lt;/div&gt;&lt;div&gt;表&lt;/div&gt;" style="rounded=0;whiteSpace=wrap;html=1;fillColor=default;strokeColor=#99CCFF;fontStyle=1" parent="1" vertex="1">
          <mxGeometry x="100" y="570" width="30" height="60" as="geometry" />
        </mxCell>
        <mxCell id="FFxPaiSAMARXtlPJRVQ4-31" value="" style="rounded=0;whiteSpace=wrap;html=1;fillColor=none;dashed=1;strokeColor=#99CCFF;" parent="1" vertex="1">
          <mxGeometry x="420" y="232" width="120" height="208" as="geometry" />
        </mxCell>
        <mxCell id="FFxPaiSAMARXtlPJRVQ4-32" value="订&lt;br&gt;&lt;div&gt;单&lt;/div&gt;&lt;div&gt;明&lt;/div&gt;&lt;div&gt;细&lt;/div&gt;&lt;div&gt;表&lt;/div&gt;" style="rounded=0;whiteSpace=wrap;html=1;fillColor=default;strokeColor=#99CCFF;fontStyle=1" parent="1" vertex="1">
          <mxGeometry x="540" y="232" width="30" height="208" as="geometry" />
        </mxCell>
        <mxCell id="FFxPaiSAMARXtlPJRVQ4-33" value="" style="rounded=0;whiteSpace=wrap;html=1;fillColor=none;dashed=1;strokeColor=#99CCFF;" parent="1" vertex="1">
          <mxGeometry x="420" y="490" width="120" height="208" as="geometry" />
        </mxCell>
        <mxCell id="FFxPaiSAMARXtlPJRVQ4-34" value="促&lt;div&gt;销&lt;br&gt;&lt;div&gt;明&lt;/div&gt;&lt;div&gt;细&lt;/div&gt;&lt;div&gt;表&lt;/div&gt;&lt;/div&gt;" style="rounded=0;whiteSpace=wrap;html=1;fillColor=default;strokeColor=#99CCFF;fontStyle=1" parent="1" vertex="1">
          <mxGeometry x="540" y="490" width="30" height="208" as="geometry" />
        </mxCell>
        <mxCell id="FFxPaiSAMARXtlPJRVQ4-35" value="" style="rounded=0;whiteSpace=wrap;html=1;fillColor=none;dashed=1;strokeColor=#99CCFF;" parent="1" vertex="1">
          <mxGeometry x="420" y="758" width="120" height="208" as="geometry" />
        </mxCell>
        <mxCell id="FFxPaiSAMARXtlPJRVQ4-36" value="团&lt;div&gt;购&lt;br&gt;&lt;div&gt;&lt;div&gt;表&lt;/div&gt;&lt;/div&gt;&lt;/div&gt;" style="rounded=0;whiteSpace=wrap;html=1;fillColor=default;strokeColor=#99CCFF;fontStyle=1" parent="1" vertex="1">
          <mxGeometry x="540" y="758" width="30" height="208" as="geometry" />
        </mxCell>
        <mxCell id="FFxPaiSAMARXtlPJRVQ4-37" value="" style="rounded=0;whiteSpace=wrap;html=1;fillColor=none;dashed=1;strokeColor=#99CCFF;" parent="1" vertex="1">
          <mxGeometry x="694" y="827" width="120" height="208" as="geometry" />
        </mxCell>
        <mxCell id="FFxPaiSAMARXtlPJRVQ4-38" value="团&lt;div&gt;购&lt;br&gt;&lt;div&gt;&lt;div&gt;明&lt;/div&gt;&lt;div&gt;细&lt;/div&gt;&lt;div&gt;表&lt;/div&gt;&lt;/div&gt;&lt;/div&gt;" style="rounded=0;whiteSpace=wrap;html=1;fillColor=default;strokeColor=#99CCFF;fontStyle=1" parent="1" vertex="1">
          <mxGeometry x="814" y="827" width="30" height="208" as="geometry" />
        </mxCell>
      </root>
    </mxGraphModel>
  </diagram>
  <diagram id="mz2zmT60uNEbT405w6Dk" name="数据通路">
    <mxGraphModel dx="2901" dy="1121" grid="1" gridSize="10" guides="1" tooltips="1" connect="1" arrows="1" fold="1" page="1" pageScale="1" pageWidth="827" pageHeight="1169" math="0" shadow="0">
      <root>
        <mxCell id="0" />
        <mxCell id="1" parent="0" />
        <mxCell id="aokSKC6UchGeUyw3YI9L-29" value="" style="rounded=0;whiteSpace=wrap;html=1;fillColor=none;dashed=1;" vertex="1" parent="1">
          <mxGeometry x="623" y="170" width="427" height="300" as="geometry" />
        </mxCell>
        <mxCell id="aokSKC6UchGeUyw3YI9L-28" value="" style="rounded=0;whiteSpace=wrap;html=1;fillColor=none;dashed=1;" vertex="1" parent="1">
          <mxGeometry x="-158" y="170" width="260" height="300" as="geometry" />
        </mxCell>
        <mxCell id="aokSKC6UchGeUyw3YI9L-1" value="BinLog" style="rounded=0;whiteSpace=wrap;html=1;textDirection=vertical-lr;fontSize=24;" vertex="1" parent="1">
          <mxGeometry x="102" y="170" width="80" height="300" as="geometry" />
        </mxCell>
        <mxCell id="aokSKC6UchGeUyw3YI9L-4" value="Table: order_info_xx" style="shape=process;whiteSpace=wrap;html=1;backgroundOutline=1;align=left;spacingLeft=7;" vertex="1" parent="1">
          <mxGeometry x="-128" y="180" width="180" height="60" as="geometry" />
        </mxCell>
        <mxCell id="aokSKC6UchGeUyw3YI9L-5" value="Table: order_detail_xx" style="shape=process;whiteSpace=wrap;html=1;backgroundOutline=1;align=left;spacingLeft=7;" vertex="1" parent="1">
          <mxGeometry x="-128" y="253" width="180" height="60" as="geometry" />
        </mxCell>
        <mxCell id="aokSKC6UchGeUyw3YI9L-6" value="Table: promotion_info_xx" style="shape=process;whiteSpace=wrap;html=1;backgroundOutline=1;align=left;spacingLeft=7;" vertex="1" parent="1">
          <mxGeometry x="-128" y="327" width="180" height="60" as="geometry" />
        </mxCell>
        <mxCell id="aokSKC6UchGeUyw3YI9L-7" value="Table: groupon_info_xx" style="shape=process;whiteSpace=wrap;html=1;backgroundOutline=1;align=left;spacingLeft=7;" vertex="1" parent="1">
          <mxGeometry x="-128" y="400" width="180" height="60" as="geometry" />
        </mxCell>
        <mxCell id="aokSKC6UchGeUyw3YI9L-16" value="" style="group;horizontal=1;" vertex="1" connectable="0" parent="1">
          <mxGeometry x="290" y="265" width="155.5" height="110" as="geometry" />
        </mxCell>
        <mxCell id="aokSKC6UchGeUyw3YI9L-8" value="" style="shape=cylinder3;whiteSpace=wrap;html=1;boundedLbl=1;backgroundOutline=1;size=11;rotation=-90;" vertex="1" parent="aokSKC6UchGeUyw3YI9L-16">
          <mxGeometry x="58" y="12.5" width="110" height="85" as="geometry" />
        </mxCell>
        <mxCell id="aokSKC6UchGeUyw3YI9L-9" value="" style="shape=cylinder3;whiteSpace=wrap;html=1;boundedLbl=1;backgroundOutline=1;size=11;rotation=-90;" vertex="1" parent="aokSKC6UchGeUyw3YI9L-16">
          <mxGeometry x="47.5" y="12.5" width="110" height="85" as="geometry" />
        </mxCell>
        <mxCell id="aokSKC6UchGeUyw3YI9L-10" value="" style="shape=cylinder3;whiteSpace=wrap;html=1;boundedLbl=1;backgroundOutline=1;size=11;rotation=-90;" vertex="1" parent="aokSKC6UchGeUyw3YI9L-16">
          <mxGeometry x="37.5" y="12.5" width="110" height="85" as="geometry" />
        </mxCell>
        <mxCell id="aokSKC6UchGeUyw3YI9L-11" value="" style="shape=cylinder3;whiteSpace=wrap;html=1;boundedLbl=1;backgroundOutline=1;size=11;rotation=-90;" vertex="1" parent="aokSKC6UchGeUyw3YI9L-16">
          <mxGeometry x="27.5" y="12.5" width="110" height="85" as="geometry" />
        </mxCell>
        <mxCell id="aokSKC6UchGeUyw3YI9L-12" value="" style="shape=cylinder3;whiteSpace=wrap;html=1;boundedLbl=1;backgroundOutline=1;size=11;rotation=-90;" vertex="1" parent="aokSKC6UchGeUyw3YI9L-16">
          <mxGeometry x="17.5" y="12.5" width="110" height="85" as="geometry" />
        </mxCell>
        <mxCell id="aokSKC6UchGeUyw3YI9L-13" value="" style="shape=cylinder3;whiteSpace=wrap;html=1;boundedLbl=1;backgroundOutline=1;size=11;rotation=-90;" vertex="1" parent="aokSKC6UchGeUyw3YI9L-16">
          <mxGeometry x="7.5" y="12.5" width="110" height="85" as="geometry" />
        </mxCell>
        <mxCell id="aokSKC6UchGeUyw3YI9L-14" value="" style="shape=cylinder3;whiteSpace=wrap;html=1;boundedLbl=1;backgroundOutline=1;size=11;rotation=-90;" vertex="1" parent="aokSKC6UchGeUyw3YI9L-16">
          <mxGeometry x="-2.5" y="12.5" width="110" height="85" as="geometry" />
        </mxCell>
        <mxCell id="aokSKC6UchGeUyw3YI9L-15" value="" style="shape=cylinder3;whiteSpace=wrap;html=1;boundedLbl=1;backgroundOutline=1;size=11;rotation=-90;" vertex="1" parent="aokSKC6UchGeUyw3YI9L-16">
          <mxGeometry x="-12.5" y="12.5" width="110" height="85" as="geometry" />
        </mxCell>
        <mxCell id="aokSKC6UchGeUyw3YI9L-19" value="Kafka" style="text;html=1;align=center;verticalAlign=middle;resizable=0;points=[];autosize=1;strokeColor=none;fillColor=none;fontStyle=1;fontSize=18;" vertex="1" parent="aokSKC6UchGeUyw3YI9L-16">
          <mxGeometry x="17.5" y="35" width="70" height="40" as="geometry" />
        </mxCell>
        <mxCell id="aokSKC6UchGeUyw3YI9L-17" style="edgeStyle=orthogonalEdgeStyle;rounded=0;orthogonalLoop=1;jettySize=auto;html=1;exitX=1;exitY=0.5;exitDx=0;exitDy=0;entryX=0.5;entryY=0;entryDx=0;entryDy=0;entryPerimeter=0;" edge="1" parent="1" source="aokSKC6UchGeUyw3YI9L-1" target="aokSKC6UchGeUyw3YI9L-15">
          <mxGeometry relative="1" as="geometry" />
        </mxCell>
        <mxCell id="aokSKC6UchGeUyw3YI9L-18" value="Push" style="edgeLabel;html=1;align=center;verticalAlign=middle;resizable=0;points=[];fontStyle=1;fontSize=13;" vertex="1" connectable="0" parent="aokSKC6UchGeUyw3YI9L-17">
          <mxGeometry x="-0.05" y="-1" relative="1" as="geometry">
            <mxPoint y="-3" as="offset" />
          </mxGeometry>
        </mxCell>
        <mxCell id="aokSKC6UchGeUyw3YI9L-20" value="Consumer" style="rounded=0;whiteSpace=wrap;html=1;textDirection=vertical-lr;fontStyle=1;fontSize=24;" vertex="1" parent="1">
          <mxGeometry x="533" y="170" width="90" height="300" as="geometry" />
        </mxCell>
        <mxCell id="aokSKC6UchGeUyw3YI9L-21" style="edgeStyle=orthogonalEdgeStyle;rounded=0;orthogonalLoop=1;jettySize=auto;html=1;exitX=0;exitY=0.5;exitDx=0;exitDy=0;entryX=0.5;entryY=1;entryDx=0;entryDy=0;entryPerimeter=0;" edge="1" parent="1" source="aokSKC6UchGeUyw3YI9L-20" target="aokSKC6UchGeUyw3YI9L-8">
          <mxGeometry relative="1" as="geometry" />
        </mxCell>
        <mxCell id="aokSKC6UchGeUyw3YI9L-22" value="&lt;font style=&quot;font-size: 13px;&quot;&gt;&lt;b&gt;Pull&lt;/b&gt;&lt;/font&gt;" style="edgeLabel;html=1;align=center;verticalAlign=middle;resizable=0;points=[];" vertex="1" connectable="0" parent="aokSKC6UchGeUyw3YI9L-21">
          <mxGeometry x="0.0414" relative="1" as="geometry">
            <mxPoint y="-3" as="offset" />
          </mxGeometry>
        </mxCell>
        <mxCell id="aokSKC6UchGeUyw3YI9L-24" value="Consumer 1" style="shape=process;whiteSpace=wrap;html=1;backgroundOutline=1;" vertex="1" parent="1">
          <mxGeometry x="680" y="177" width="320" height="60" as="geometry" />
        </mxCell>
        <mxCell id="aokSKC6UchGeUyw3YI9L-25" value="Consumer 2" style="shape=process;whiteSpace=wrap;html=1;backgroundOutline=1;" vertex="1" parent="1">
          <mxGeometry x="680" y="252" width="320" height="60" as="geometry" />
        </mxCell>
        <mxCell id="aokSKC6UchGeUyw3YI9L-26" value="Consumer 2" style="shape=process;whiteSpace=wrap;html=1;backgroundOutline=1;" vertex="1" parent="1">
          <mxGeometry x="680" y="327" width="320" height="60" as="geometry" />
        </mxCell>
        <mxCell id="aokSKC6UchGeUyw3YI9L-27" value="Consumer N" style="shape=process;whiteSpace=wrap;html=1;backgroundOutline=1;" vertex="1" parent="1">
          <mxGeometry x="680" y="402" width="320" height="60" as="geometry" />
        </mxCell>
      </root>
    </mxGraphModel>
  </diagram>
  <diagram id="8b4mGKqqV1oHuGkqpnml" name="系统架构">
    <mxGraphModel dx="2422" dy="862" grid="1" gridSize="10" guides="1" tooltips="1" connect="1" arrows="1" fold="1" page="1" pageScale="1" pageWidth="827" pageHeight="1169" math="0" shadow="0">
      <root>
        <mxCell id="0" />
        <mxCell id="1" parent="0" />
        <mxCell id="CyA0IWYdoH67KUbH8Dvg-54" value="" style="rounded=0;whiteSpace=wrap;html=1;fillColor=none;dashed=1;" parent="1" vertex="1">
          <mxGeometry x="240" y="283" width="300" height="60" as="geometry" />
        </mxCell>
        <mxCell id="CyA0IWYdoH67KUbH8Dvg-39" value="&lt;span style=&quot;text-wrap-mode: nowrap;&quot;&gt;自 定 义&lt;/span&gt;&lt;div style=&quot;text-wrap-mode: nowrap;&quot;&gt;&lt;span style=&quot;background-color: initial;&quot;&gt;处&lt;/span&gt;&lt;span style=&quot;background-color: initial;&quot;&gt;理函数&lt;/span&gt;&lt;/div&gt;" style="rounded=0;whiteSpace=wrap;html=1;fontStyle=1;fontSize=13;" parent="1" vertex="1">
          <mxGeometry x="580" y="850" width="60" height="60" as="geometry" />
        </mxCell>
        <mxCell id="CyA0IWYdoH67KUbH8Dvg-29" value="" style="rounded=0;whiteSpace=wrap;html=1;fillColor=none;dashed=1;" parent="1" vertex="1">
          <mxGeometry x="380" y="751" width="160" height="60" as="geometry" />
        </mxCell>
        <mxCell id="CyA0IWYdoH67KUbH8Dvg-28" value="" style="rounded=0;whiteSpace=wrap;html=1;fillColor=none;dashed=1;" parent="1" vertex="1">
          <mxGeometry x="240" y="751" width="100" height="60" as="geometry" />
        </mxCell>
        <mxCell id="CyA0IWYdoH67KUbH8Dvg-2" value="Kafka" style="rounded=0;whiteSpace=wrap;html=1;" parent="1" vertex="1">
          <mxGeometry x="250" y="293" width="80" height="40" as="geometry" />
        </mxCell>
        <mxCell id="CyA0IWYdoH67KUbH8Dvg-3" value="MySQL" style="rounded=0;whiteSpace=wrap;html=1;" parent="1" vertex="1">
          <mxGeometry x="350" y="293" width="80" height="40" as="geometry" />
        </mxCell>
        <mxCell id="CyA0IWYdoH67KUbH8Dvg-4" value="CURL" style="rounded=0;whiteSpace=wrap;html=1;" parent="1" vertex="1">
          <mxGeometry x="450" y="293" width="80" height="40" as="geometry" />
        </mxCell>
        <mxCell id="CyA0IWYdoH67KUbH8Dvg-14" style="edgeStyle=orthogonalEdgeStyle;rounded=0;orthogonalLoop=1;jettySize=auto;html=1;exitX=0.5;exitY=0;exitDx=0;exitDy=0;entryX=0.5;entryY=1;entryDx=0;entryDy=0;" parent="1" source="CyA0IWYdoH67KUbH8Dvg-5" target="CyA0IWYdoH67KUbH8Dvg-2" edge="1">
          <mxGeometry relative="1" as="geometry" />
        </mxCell>
        <mxCell id="CyA0IWYdoH67KUbH8Dvg-15" style="edgeStyle=orthogonalEdgeStyle;rounded=0;orthogonalLoop=1;jettySize=auto;html=1;exitX=0.5;exitY=0;exitDx=0;exitDy=0;entryX=0.5;entryY=1;entryDx=0;entryDy=0;" parent="1" source="CyA0IWYdoH67KUbH8Dvg-5" target="CyA0IWYdoH67KUbH8Dvg-3" edge="1">
          <mxGeometry relative="1" as="geometry" />
        </mxCell>
        <mxCell id="CyA0IWYdoH67KUbH8Dvg-16" style="edgeStyle=orthogonalEdgeStyle;rounded=0;orthogonalLoop=1;jettySize=auto;html=1;exitX=0.5;exitY=0;exitDx=0;exitDy=0;entryX=0.5;entryY=1;entryDx=0;entryDy=0;" parent="1" source="CyA0IWYdoH67KUbH8Dvg-5" target="CyA0IWYdoH67KUbH8Dvg-4" edge="1">
          <mxGeometry relative="1" as="geometry" />
        </mxCell>
        <mxCell id="CyA0IWYdoH67KUbH8Dvg-17" value="分类型" style="edgeLabel;html=1;align=center;verticalAlign=middle;resizable=0;points=[];" parent="CyA0IWYdoH67KUbH8Dvg-16" vertex="1" connectable="0">
          <mxGeometry x="-0.8345" y="1" relative="1" as="geometry">
            <mxPoint as="offset" />
          </mxGeometry>
        </mxCell>
        <mxCell id="CyA0IWYdoH67KUbH8Dvg-5" value="采集数据" style="rounded=0;whiteSpace=wrap;html=1;" parent="1" vertex="1">
          <mxGeometry x="240" y="387" width="300" height="40" as="geometry" />
        </mxCell>
        <mxCell id="CyA0IWYdoH67KUbH8Dvg-11" value="" style="group" parent="1" vertex="1" connectable="0">
          <mxGeometry x="345" y="477" width="90" height="80" as="geometry" />
        </mxCell>
        <mxCell id="CyA0IWYdoH67KUbH8Dvg-7" value="" style="shape=cylinder3;whiteSpace=wrap;html=1;boundedLbl=1;backgroundOutline=1;size=15;" parent="CyA0IWYdoH67KUbH8Dvg-11" vertex="1">
          <mxGeometry y="27.66355140186916" width="90" height="52.33644859813084" as="geometry" />
        </mxCell>
        <mxCell id="CyA0IWYdoH67KUbH8Dvg-8" value="" style="shape=cylinder3;whiteSpace=wrap;html=1;boundedLbl=1;backgroundOutline=1;size=15;" parent="CyA0IWYdoH67KUbH8Dvg-11" vertex="1">
          <mxGeometry y="18.69158878504673" width="90" height="52.33644859813084" as="geometry" />
        </mxCell>
        <mxCell id="CyA0IWYdoH67KUbH8Dvg-9" value="" style="shape=cylinder3;whiteSpace=wrap;html=1;boundedLbl=1;backgroundOutline=1;size=15;" parent="CyA0IWYdoH67KUbH8Dvg-11" vertex="1">
          <mxGeometry y="8.97196261682243" width="90" height="52.33644859813084" as="geometry" />
        </mxCell>
        <mxCell id="CyA0IWYdoH67KUbH8Dvg-10" value="通道" style="shape=cylinder3;whiteSpace=wrap;html=1;boundedLbl=1;backgroundOutline=1;size=15;" parent="CyA0IWYdoH67KUbH8Dvg-11" vertex="1">
          <mxGeometry width="90" height="52.33644859813084" as="geometry" />
        </mxCell>
        <mxCell id="CyA0IWYdoH67KUbH8Dvg-12" style="edgeStyle=orthogonalEdgeStyle;rounded=0;orthogonalLoop=1;jettySize=auto;html=1;exitX=0.5;exitY=1;exitDx=0;exitDy=0;entryX=0.5;entryY=0;entryDx=0;entryDy=0;entryPerimeter=0;" parent="1" source="CyA0IWYdoH67KUbH8Dvg-5" target="CyA0IWYdoH67KUbH8Dvg-10" edge="1">
          <mxGeometry relative="1" as="geometry" />
        </mxCell>
        <mxCell id="CyA0IWYdoH67KUbH8Dvg-13" value="写入" style="edgeLabel;html=1;align=center;verticalAlign=middle;resizable=0;points=[];" parent="CyA0IWYdoH67KUbH8Dvg-12" vertex="1" connectable="0">
          <mxGeometry x="-0.3535" y="1" relative="1" as="geometry">
            <mxPoint x="-2" y="4" as="offset" />
          </mxGeometry>
        </mxCell>
        <mxCell id="CyA0IWYdoH67KUbH8Dvg-18" value="消费数据" style="rounded=0;whiteSpace=wrap;html=1;" parent="1" vertex="1">
          <mxGeometry x="240" y="610" width="300" height="40" as="geometry" />
        </mxCell>
        <mxCell id="CyA0IWYdoH67KUbH8Dvg-19" style="edgeStyle=orthogonalEdgeStyle;rounded=0;orthogonalLoop=1;jettySize=auto;html=1;exitX=0.5;exitY=0;exitDx=0;exitDy=0;entryX=0.5;entryY=1;entryDx=0;entryDy=0;entryPerimeter=0;" parent="1" source="CyA0IWYdoH67KUbH8Dvg-18" target="CyA0IWYdoH67KUbH8Dvg-7" edge="1">
          <mxGeometry relative="1" as="geometry" />
        </mxCell>
        <mxCell id="CyA0IWYdoH67KUbH8Dvg-20" value="读取" style="edgeLabel;html=1;align=center;verticalAlign=middle;resizable=0;points=[];" parent="CyA0IWYdoH67KUbH8Dvg-19" vertex="1" connectable="0">
          <mxGeometry x="-0.1637" relative="1" as="geometry">
            <mxPoint as="offset" />
          </mxGeometry>
        </mxCell>
        <mxCell id="CyA0IWYdoH67KUbH8Dvg-21" value="单数据处理" style="rounded=0;whiteSpace=wrap;html=1;" parent="1" vertex="1">
          <mxGeometry x="240" y="711" width="100" height="40" as="geometry" />
        </mxCell>
        <mxCell id="CyA0IWYdoH67KUbH8Dvg-22" value="批数据处理" style="rounded=0;whiteSpace=wrap;html=1;" parent="1" vertex="1">
          <mxGeometry x="380" y="711" width="160" height="40" as="geometry" />
        </mxCell>
        <mxCell id="CyA0IWYdoH67KUbH8Dvg-23" value="OR" style="text;html=1;align=center;verticalAlign=middle;resizable=0;points=[];autosize=1;strokeColor=none;fillColor=none;" parent="1" vertex="1">
          <mxGeometry x="340" y="716" width="40" height="30" as="geometry" />
        </mxCell>
        <mxCell id="CyA0IWYdoH67KUbH8Dvg-24" value="" style="shape=flexArrow;endArrow=classic;html=1;rounded=0;endWidth=31.541373715521903;endSize=5.497674418604651;width=25.116279069767444;" parent="1" edge="1">
          <mxGeometry width="50" height="50" relative="1" as="geometry">
            <mxPoint x="389.77" y="660" as="sourcePoint" />
            <mxPoint x="390" y="695" as="targetPoint" />
          </mxGeometry>
        </mxCell>
        <mxCell id="CyA0IWYdoH67KUbH8Dvg-25" value="Processor" style="shape=cylinder3;whiteSpace=wrap;html=1;boundedLbl=1;backgroundOutline=1;size=6.674418604651237;" parent="1" vertex="1">
          <mxGeometry x="255" y="762" width="70" height="40" as="geometry" />
        </mxCell>
        <mxCell id="CyA0IWYdoH67KUbH8Dvg-26" value="Processor" style="shape=cylinder3;whiteSpace=wrap;html=1;boundedLbl=1;backgroundOutline=1;size=6.674418604651237;" parent="1" vertex="1">
          <mxGeometry x="384.5" y="762" width="70" height="40" as="geometry" />
        </mxCell>
        <mxCell id="CyA0IWYdoH67KUbH8Dvg-27" value="Processor" style="shape=cylinder3;whiteSpace=wrap;html=1;boundedLbl=1;backgroundOutline=1;size=6.674418604651237;" parent="1" vertex="1">
          <mxGeometry x="465.5" y="762" width="70" height="40" as="geometry" />
        </mxCell>
        <mxCell id="CyA0IWYdoH67KUbH8Dvg-30" value="" style="rounded=0;whiteSpace=wrap;html=1;dashed=1;" parent="1" vertex="1">
          <mxGeometry x="240" y="850" width="300" height="60" as="geometry" />
        </mxCell>
        <mxCell id="CyA0IWYdoH67KUbH8Dvg-31" value="TPL Func" style="rounded=0;whiteSpace=wrap;html=1;fillColor=#dae8fc;strokeColor=#6c8ebf;" parent="1" vertex="1">
          <mxGeometry x="247" y="860" width="90" height="40" as="geometry" />
        </mxCell>
        <mxCell id="CyA0IWYdoH67KUbH8Dvg-32" value="TPL Func" style="rounded=0;whiteSpace=wrap;html=1;fillColor=#dae8fc;strokeColor=#6c8ebf;" parent="1" vertex="1">
          <mxGeometry x="345" y="860" width="90" height="40" as="geometry" />
        </mxCell>
        <mxCell id="CyA0IWYdoH67KUbH8Dvg-33" value="TPL Func" style="rounded=0;whiteSpace=wrap;html=1;fillColor=#dae8fc;strokeColor=#6c8ebf;" parent="1" vertex="1">
          <mxGeometry x="444" y="860" width="90" height="40" as="geometry" />
        </mxCell>
        <mxCell id="CyA0IWYdoH67KUbH8Dvg-34" style="edgeStyle=orthogonalEdgeStyle;rounded=0;orthogonalLoop=1;jettySize=auto;html=1;exitX=0.5;exitY=1;exitDx=0;exitDy=0;exitPerimeter=0;entryX=0.168;entryY=0.018;entryDx=0;entryDy=0;entryPerimeter=0;dashed=1;" parent="1" source="CyA0IWYdoH67KUbH8Dvg-25" target="CyA0IWYdoH67KUbH8Dvg-30" edge="1">
          <mxGeometry relative="1" as="geometry" />
        </mxCell>
        <mxCell id="CyA0IWYdoH67KUbH8Dvg-35" style="edgeStyle=orthogonalEdgeStyle;rounded=0;orthogonalLoop=1;jettySize=auto;html=1;exitX=0.5;exitY=1;exitDx=0;exitDy=0;exitPerimeter=0;entryX=0.599;entryY=0.005;entryDx=0;entryDy=0;entryPerimeter=0;" parent="1" source="CyA0IWYdoH67KUbH8Dvg-26" target="CyA0IWYdoH67KUbH8Dvg-30" edge="1">
          <mxGeometry relative="1" as="geometry" />
        </mxCell>
        <mxCell id="CyA0IWYdoH67KUbH8Dvg-37" style="edgeStyle=orthogonalEdgeStyle;rounded=0;orthogonalLoop=1;jettySize=auto;html=1;exitX=0.5;exitY=1;exitDx=0;exitDy=0;exitPerimeter=0;entryX=0.871;entryY=-0.046;entryDx=0;entryDy=0;entryPerimeter=0;" parent="1" source="CyA0IWYdoH67KUbH8Dvg-27" target="CyA0IWYdoH67KUbH8Dvg-30" edge="1">
          <mxGeometry relative="1" as="geometry" />
        </mxCell>
        <mxCell id="CyA0IWYdoH67KUbH8Dvg-40" value="&lt;span style=&quot;text-wrap-mode: nowrap;&quot;&gt;自 定 义&lt;/span&gt;&lt;div style=&quot;text-wrap-mode: nowrap;&quot;&gt;数据来源&lt;/div&gt;" style="rounded=0;whiteSpace=wrap;html=1;fontStyle=1;fontSize=13;" parent="1" vertex="1">
          <mxGeometry x="580" y="283" width="60" height="60" as="geometry" />
        </mxCell>
        <mxCell id="CyA0IWYdoH67KUbH8Dvg-51" style="edgeStyle=orthogonalEdgeStyle;rounded=0;orthogonalLoop=1;jettySize=auto;html=1;exitX=1;exitY=0.5;exitDx=0;exitDy=0;entryX=0;entryY=0.5;entryDx=0;entryDy=0;" parent="1" source="CyA0IWYdoH67KUbH8Dvg-41" target="CyA0IWYdoH67KUbH8Dvg-45" edge="1">
          <mxGeometry relative="1" as="geometry" />
        </mxCell>
        <mxCell id="CyA0IWYdoH67KUbH8Dvg-52" value="加载配置" style="edgeLabel;html=1;align=center;verticalAlign=middle;resizable=0;points=[];" parent="CyA0IWYdoH67KUbH8Dvg-51" vertex="1" connectable="0">
          <mxGeometry x="-0.1674" y="-2" relative="1" as="geometry">
            <mxPoint x="7" y="-2" as="offset" />
          </mxGeometry>
        </mxCell>
        <mxCell id="CyA0IWYdoH67KUbH8Dvg-41" value="开始" style="rounded=1;whiteSpace=wrap;html=1;" parent="1" vertex="1">
          <mxGeometry x="-221" y="382" width="110" height="50" as="geometry" />
        </mxCell>
        <mxCell id="CyA0IWYdoH67KUbH8Dvg-47" style="edgeStyle=orthogonalEdgeStyle;rounded=0;orthogonalLoop=1;jettySize=auto;html=1;exitX=0.75;exitY=1;exitDx=0;exitDy=0;entryX=0.75;entryY=0;entryDx=0;entryDy=0;" parent="1" source="CyA0IWYdoH67KUbH8Dvg-42" target="CyA0IWYdoH67KUbH8Dvg-44" edge="1">
          <mxGeometry relative="1" as="geometry" />
        </mxCell>
        <mxCell id="CyA0IWYdoH67KUbH8Dvg-42" value="加载数据源" style="rounded=0;whiteSpace=wrap;html=1;" parent="1" vertex="1">
          <mxGeometry x="2" y="283" width="108" height="48" as="geometry" />
        </mxCell>
        <mxCell id="CyA0IWYdoH67KUbH8Dvg-49" style="edgeStyle=orthogonalEdgeStyle;rounded=0;orthogonalLoop=1;jettySize=auto;html=1;exitX=0.75;exitY=0;exitDx=0;exitDy=0;entryX=0.75;entryY=1;entryDx=0;entryDy=0;" parent="1" source="CyA0IWYdoH67KUbH8Dvg-43" target="CyA0IWYdoH67KUbH8Dvg-44" edge="1">
          <mxGeometry relative="1" as="geometry" />
        </mxCell>
        <mxCell id="CyA0IWYdoH67KUbH8Dvg-43" value="注册处理函数" style="rounded=0;whiteSpace=wrap;html=1;" parent="1" vertex="1">
          <mxGeometry x="2" y="482" width="108" height="48" as="geometry" />
        </mxCell>
        <mxCell id="CyA0IWYdoH67KUbH8Dvg-46" style="edgeStyle=orthogonalEdgeStyle;rounded=0;orthogonalLoop=1;jettySize=auto;html=1;exitX=0.25;exitY=0;exitDx=0;exitDy=0;entryX=0.25;entryY=1;entryDx=0;entryDy=0;" parent="1" source="CyA0IWYdoH67KUbH8Dvg-44" target="CyA0IWYdoH67KUbH8Dvg-42" edge="1">
          <mxGeometry relative="1" as="geometry" />
        </mxCell>
        <mxCell id="CyA0IWYdoH67KUbH8Dvg-48" style="edgeStyle=orthogonalEdgeStyle;rounded=0;orthogonalLoop=1;jettySize=auto;html=1;exitX=0.25;exitY=1;exitDx=0;exitDy=0;entryX=0.25;entryY=0;entryDx=0;entryDy=0;" parent="1" source="CyA0IWYdoH67KUbH8Dvg-44" target="CyA0IWYdoH67KUbH8Dvg-43" edge="1">
          <mxGeometry relative="1" as="geometry" />
        </mxCell>
        <mxCell id="CyA0IWYdoH67KUbH8Dvg-44" value="上下游设定" style="rounded=0;whiteSpace=wrap;html=1;" parent="1" vertex="1">
          <mxGeometry x="2" y="384" width="108" height="48" as="geometry" />
        </mxCell>
        <mxCell id="CyA0IWYdoH67KUbH8Dvg-50" style="edgeStyle=orthogonalEdgeStyle;rounded=0;orthogonalLoop=1;jettySize=auto;html=1;exitX=1;exitY=0.5;exitDx=0;exitDy=0;entryX=0;entryY=0.5;entryDx=0;entryDy=0;" parent="1" source="CyA0IWYdoH67KUbH8Dvg-45" target="CyA0IWYdoH67KUbH8Dvg-5" edge="1">
          <mxGeometry relative="1" as="geometry" />
        </mxCell>
        <mxCell id="CyA0IWYdoH67KUbH8Dvg-53" value="执行程序" style="edgeLabel;html=1;align=center;verticalAlign=middle;resizable=0;points=[];" parent="CyA0IWYdoH67KUbH8Dvg-50" vertex="1" connectable="0">
          <mxGeometry x="-0.0959" relative="1" as="geometry">
            <mxPoint as="offset" />
          </mxGeometry>
        </mxCell>
        <mxCell id="CyA0IWYdoH67KUbH8Dvg-45" value="" style="rounded=0;whiteSpace=wrap;html=1;fillColor=none;dashed=1;" parent="1" vertex="1">
          <mxGeometry x="-10" y="267" width="132" height="280" as="geometry" />
        </mxCell>
      </root>
    </mxGraphModel>
  </diagram>
  <diagram id="szqOo_NC7Vukz_3yhO2s" name="解决方案">
    <mxGraphModel dx="1885" dy="1019" grid="1" gridSize="10" guides="1" tooltips="1" connect="1" arrows="1" fold="1" page="1" pageScale="1" pageWidth="827" pageHeight="1169" math="0" shadow="0">
      <root>
        <mxCell id="0" />
        <mxCell id="1" parent="0" />
        <mxCell id="JlwOOIvvGZTpa9u4inS7-18" style="edgeStyle=orthogonalEdgeStyle;rounded=0;orthogonalLoop=1;jettySize=auto;html=1;exitX=0;exitY=0.5;exitDx=0;exitDy=0;entryX=0;entryY=0.5;entryDx=0;entryDy=0;" edge="1" parent="1" source="36dtRS3hENfDoWUXv9Cl-11" target="36dtRS3hENfDoWUXv9Cl-28">
          <mxGeometry relative="1" as="geometry">
            <Array as="points">
              <mxPoint x="551" y="860" />
              <mxPoint x="919" y="860" />
            </Array>
          </mxGeometry>
        </mxCell>
        <mxCell id="u5F5FRf6ZBEcTlfiqtld-4" value="" style="rounded=0;whiteSpace=wrap;html=1;fillColor=none;dashed=1;" parent="1" vertex="1">
          <mxGeometry x="245" y="630" width="975" height="330" as="geometry" />
        </mxCell>
        <mxCell id="JlwOOIvvGZTpa9u4inS7-17" value="" style="rounded=1;whiteSpace=wrap;html=1;fillColor=default;dashed=1;strokeColor=#8F8F8F;" vertex="1" parent="1">
          <mxGeometry x="531" y="640" width="389" height="40" as="geometry" />
        </mxCell>
        <mxCell id="JlwOOIvvGZTpa9u4inS7-15" value="" style="rounded=1;whiteSpace=wrap;html=1;fillColor=none;dashed=1;strokeColor=#808080;fontColor=#8F8F8F;" vertex="1" parent="1">
          <mxGeometry x="1001" y="1201" width="333" height="67" as="geometry" />
        </mxCell>
        <mxCell id="u5F5FRf6ZBEcTlfiqtld-2" style="edgeStyle=orthogonalEdgeStyle;rounded=0;orthogonalLoop=1;jettySize=auto;html=1;exitX=0.5;exitY=1;exitDx=0;exitDy=0;exitPerimeter=0;entryX=0.5;entryY=0;entryDx=0;entryDy=0;" parent="1" source="36dtRS3hENfDoWUXv9Cl-26" target="u5F5FRf6ZBEcTlfiqtld-1" edge="1">
          <mxGeometry relative="1" as="geometry" />
        </mxCell>
        <mxCell id="36dtRS3hENfDoWUXv9Cl-26" value="" style="shape=cylinder3;whiteSpace=wrap;html=1;boundedLbl=1;backgroundOutline=1;size=8.999999999999886;rotation=-90;" parent="1" vertex="1">
          <mxGeometry x="921.9" y="718.09" width="57.5" height="152.56" as="geometry" />
        </mxCell>
        <mxCell id="Tc_IJ6dy5iR3zD9qNRpo-7" style="edgeStyle=orthogonalEdgeStyle;rounded=0;orthogonalLoop=1;jettySize=auto;html=1;exitX=1;exitY=0.5;exitDx=0;exitDy=0;" parent="1" source="Tc_IJ6dy5iR3zD9qNRpo-1" target="Tc_IJ6dy5iR3zD9qNRpo-4" edge="1">
          <mxGeometry relative="1" as="geometry" />
        </mxCell>
        <mxCell id="Tc_IJ6dy5iR3zD9qNRpo-8" value="&amp;nbsp;2&amp;nbsp;" style="edgeLabel;html=1;align=center;verticalAlign=middle;resizable=0;points=[];" parent="Tc_IJ6dy5iR3zD9qNRpo-7" vertex="1" connectable="0">
          <mxGeometry x="-0.2078" y="2" relative="1" as="geometry">
            <mxPoint x="-4" as="offset" />
          </mxGeometry>
        </mxCell>
        <mxCell id="Tc_IJ6dy5iR3zD9qNRpo-1" value="version 1" style="ellipse;whiteSpace=wrap;html=1;" parent="1" vertex="1">
          <mxGeometry x="260" y="272.5" width="90" height="45" as="geometry" />
        </mxCell>
        <mxCell id="Tc_IJ6dy5iR3zD9qNRpo-2" value="version 2" style="ellipse;whiteSpace=wrap;html=1;" parent="1" vertex="1">
          <mxGeometry x="260" y="332.5" width="90" height="45" as="geometry" />
        </mxCell>
        <mxCell id="Tc_IJ6dy5iR3zD9qNRpo-3" value="version 3" style="ellipse;whiteSpace=wrap;html=1;" parent="1" vertex="1">
          <mxGeometry x="260" y="392.5" width="90" height="45" as="geometry" />
        </mxCell>
        <mxCell id="Tc_IJ6dy5iR3zD9qNRpo-12" style="edgeStyle=orthogonalEdgeStyle;rounded=0;orthogonalLoop=1;jettySize=auto;html=1;exitX=0.5;exitY=0;exitDx=0;exitDy=0;exitPerimeter=0;entryX=0;entryY=0.5;entryDx=0;entryDy=0;" parent="1" source="Tc_IJ6dy5iR3zD9qNRpo-4" target="Tc_IJ6dy5iR3zD9qNRpo-17" edge="1">
          <mxGeometry relative="1" as="geometry">
            <mxPoint x="590.0000000000005" y="297.5" as="targetPoint" />
          </mxGeometry>
        </mxCell>
        <mxCell id="Tc_IJ6dy5iR3zD9qNRpo-13" value="&lt;font color=&quot;#ff3333&quot;&gt;&amp;nbsp;Version 1 &amp;lt; 2&amp;nbsp;&lt;/font&gt;" style="edgeLabel;html=1;align=center;verticalAlign=middle;resizable=0;points=[];labelBorderColor=#FF9999;" parent="Tc_IJ6dy5iR3zD9qNRpo-12" vertex="1" connectable="0">
          <mxGeometry x="0.2292" y="1" relative="1" as="geometry">
            <mxPoint as="offset" />
          </mxGeometry>
        </mxCell>
        <mxCell id="Tc_IJ6dy5iR3zD9qNRpo-15" value="" style="edgeStyle=orthogonalEdgeStyle;rounded=0;orthogonalLoop=1;jettySize=auto;html=1;exitX=0.5;exitY=1;exitDx=0;exitDy=0;exitPerimeter=0;entryX=0;entryY=0.5;entryDx=0;entryDy=0;" parent="1" source="Tc_IJ6dy5iR3zD9qNRpo-4" target="Tc_IJ6dy5iR3zD9qNRpo-14" edge="1">
          <mxGeometry relative="1" as="geometry">
            <Array as="points">
              <mxPoint x="465" y="414.5" />
            </Array>
          </mxGeometry>
        </mxCell>
        <mxCell id="Tc_IJ6dy5iR3zD9qNRpo-16" value="&lt;font color=&quot;#00cc66&quot;&gt;&amp;nbsp;Version 3 &amp;gt; 2&amp;nbsp;&lt;/font&gt;" style="edgeLabel;html=1;align=center;verticalAlign=middle;resizable=0;points=[];labelBorderColor=#B9E0A5;" parent="Tc_IJ6dy5iR3zD9qNRpo-15" vertex="1" connectable="0">
          <mxGeometry x="0.2326" y="2" relative="1" as="geometry">
            <mxPoint as="offset" />
          </mxGeometry>
        </mxCell>
        <mxCell id="Tc_IJ6dy5iR3zD9qNRpo-4" value="Lock&lt;br&gt;&lt;font color=&quot;#66b2ff&quot; style=&quot;font-size: 10px;&quot;&gt;( val: version 2 )&lt;/font&gt;" style="shape=cylinder3;whiteSpace=wrap;html=1;boundedLbl=1;backgroundOutline=1;size=9.428571428571388;" parent="1" vertex="1">
          <mxGeometry x="420" y="327.5" width="90" height="55" as="geometry" />
        </mxCell>
        <mxCell id="Tc_IJ6dy5iR3zD9qNRpo-5" style="edgeStyle=orthogonalEdgeStyle;rounded=0;orthogonalLoop=1;jettySize=auto;html=1;exitX=1;exitY=0.5;exitDx=0;exitDy=0;entryX=0;entryY=0.5;entryDx=0;entryDy=0;entryPerimeter=0;" parent="1" source="Tc_IJ6dy5iR3zD9qNRpo-2" target="Tc_IJ6dy5iR3zD9qNRpo-4" edge="1">
          <mxGeometry relative="1" as="geometry" />
        </mxCell>
        <mxCell id="Tc_IJ6dy5iR3zD9qNRpo-6" value="&amp;nbsp;1&amp;nbsp;" style="edgeLabel;html=1;align=center;verticalAlign=middle;resizable=0;points=[];" parent="Tc_IJ6dy5iR3zD9qNRpo-5" vertex="1" connectable="0">
          <mxGeometry x="-0.1796" y="3" relative="1" as="geometry">
            <mxPoint x="4" y="2" as="offset" />
          </mxGeometry>
        </mxCell>
        <mxCell id="Tc_IJ6dy5iR3zD9qNRpo-9" style="edgeStyle=orthogonalEdgeStyle;rounded=0;orthogonalLoop=1;jettySize=auto;html=1;exitX=1;exitY=0.5;exitDx=0;exitDy=0;entryX=0.5;entryY=1;entryDx=0;entryDy=0;entryPerimeter=0;" parent="1" source="Tc_IJ6dy5iR3zD9qNRpo-3" target="Tc_IJ6dy5iR3zD9qNRpo-4" edge="1">
          <mxGeometry relative="1" as="geometry">
            <Array as="points">
              <mxPoint x="465" y="414.5" />
            </Array>
          </mxGeometry>
        </mxCell>
        <mxCell id="Tc_IJ6dy5iR3zD9qNRpo-10" value="&amp;nbsp;3&amp;nbsp;" style="edgeLabel;html=1;align=center;verticalAlign=middle;resizable=0;points=[];" parent="Tc_IJ6dy5iR3zD9qNRpo-9" vertex="1" connectable="0">
          <mxGeometry x="-0.2619" y="1" relative="1" as="geometry">
            <mxPoint as="offset" />
          </mxGeometry>
        </mxCell>
        <mxCell id="Tc_IJ6dy5iR3zD9qNRpo-14" value="" style="ellipse;whiteSpace=wrap;html=1;aspect=fixed;strokeColor=#00CC66;" parent="1" vertex="1">
          <mxGeometry x="590" y="390" width="50" height="50" as="geometry" />
        </mxCell>
        <mxCell id="Tc_IJ6dy5iR3zD9qNRpo-17" value="" style="ellipse;whiteSpace=wrap;html=1;aspect=fixed;strokeColor=#FF3333;" parent="1" vertex="1">
          <mxGeometry x="590" y="270" width="50" height="50" as="geometry" />
        </mxCell>
        <mxCell id="Tc_IJ6dy5iR3zD9qNRpo-18" value="" style="verticalLabelPosition=bottom;verticalAlign=top;html=1;shape=mxgraph.basic.x;aspect=fixed;fillColor=#f8cecc;strokeColor=#FF5226;" parent="1" vertex="1">
          <mxGeometry x="600" y="280" width="30" height="30" as="geometry" />
        </mxCell>
        <mxCell id="Tc_IJ6dy5iR3zD9qNRpo-21" value="" style="verticalLabelPosition=bottom;verticalAlign=top;html=1;shape=mxgraph.basic.tick;aspect=fixed;fillColor=#d5e8d4;strokeColor=#82b366;" parent="1" vertex="1">
          <mxGeometry x="597" y="398.38" width="36" height="33.24" as="geometry" />
        </mxCell>
        <mxCell id="Tc_IJ6dy5iR3zD9qNRpo-23" value="&lt;font color=&quot;#666666&quot;&gt;版&lt;/font&gt;&lt;div&gt;&lt;font color=&quot;#666666&quot;&gt;本&lt;/font&gt;&lt;/div&gt;&lt;div&gt;&lt;font color=&quot;#666666&quot;&gt;过&lt;/font&gt;&lt;/div&gt;&lt;div&gt;&lt;font color=&quot;#666666&quot;&gt;滤&lt;/font&gt;&lt;/div&gt;" style="rounded=0;whiteSpace=wrap;html=1;fontSize=24;" parent="1" vertex="1">
          <mxGeometry x="190" y="250" width="55" height="200" as="geometry" />
        </mxCell>
        <mxCell id="36dtRS3hENfDoWUXv9Cl-2" value="&lt;font color=&quot;#666666&quot;&gt;数&lt;/font&gt;&lt;div&gt;&lt;font color=&quot;#666666&quot;&gt;据&lt;/font&gt;&lt;/div&gt;&lt;div&gt;&lt;font color=&quot;#666666&quot;&gt;滤&lt;/font&gt;&lt;/div&gt;&lt;div&gt;&lt;font color=&quot;#666666&quot;&gt;重&lt;/font&gt;&lt;/div&gt;" style="rounded=0;whiteSpace=wrap;html=1;fontSize=24;" parent="1" vertex="1">
          <mxGeometry x="190" y="630" width="55" height="330" as="geometry" />
        </mxCell>
        <mxCell id="36dtRS3hENfDoWUXv9Cl-3" value="info 1" style="ellipse;whiteSpace=wrap;html=1;" parent="1" vertex="1">
          <mxGeometry x="270" y="736.87" width="60" height="35" as="geometry" />
        </mxCell>
        <mxCell id="36dtRS3hENfDoWUXv9Cl-19" style="edgeStyle=orthogonalEdgeStyle;rounded=0;orthogonalLoop=1;jettySize=auto;html=1;exitX=1;exitY=0.5;exitDx=0;exitDy=0;" parent="1" source="36dtRS3hENfDoWUXv9Cl-4" edge="1">
          <mxGeometry relative="1" as="geometry">
            <mxPoint x="510" y="794.4771428571429" as="targetPoint" />
          </mxGeometry>
        </mxCell>
        <mxCell id="36dtRS3hENfDoWUXv9Cl-4" value="detail 1" style="ellipse;whiteSpace=wrap;html=1;" parent="1" vertex="1">
          <mxGeometry x="270" y="776.87" width="60" height="35" as="geometry" />
        </mxCell>
        <mxCell id="36dtRS3hENfDoWUXv9Cl-5" value="extra 1" style="ellipse;whiteSpace=wrap;html=1;" parent="1" vertex="1">
          <mxGeometry x="270" y="816.87" width="60" height="35" as="geometry" />
        </mxCell>
        <mxCell id="36dtRS3hENfDoWUXv9Cl-6" value="info 2" style="ellipse;whiteSpace=wrap;html=1;" parent="1" vertex="1">
          <mxGeometry x="270" y="645.62" width="60" height="35" as="geometry" />
        </mxCell>
        <mxCell id="36dtRS3hENfDoWUXv9Cl-7" value="extra 2" style="ellipse;whiteSpace=wrap;html=1;" parent="1" vertex="1">
          <mxGeometry x="270" y="687.12" width="60" height="35" as="geometry" />
        </mxCell>
        <mxCell id="36dtRS3hENfDoWUXv9Cl-8" value="info 3" style="ellipse;whiteSpace=wrap;html=1;" parent="1" vertex="1">
          <mxGeometry x="270" y="869.7500000000001" width="60" height="35" as="geometry" />
        </mxCell>
        <mxCell id="36dtRS3hENfDoWUXv9Cl-9" value="detail 3" style="ellipse;whiteSpace=wrap;html=1;" parent="1" vertex="1">
          <mxGeometry x="270" y="909.7500000000001" width="60" height="35" as="geometry" />
        </mxCell>
        <mxCell id="36dtRS3hENfDoWUXv9Cl-10" value="" style="shape=cylinder3;whiteSpace=wrap;html=1;boundedLbl=1;backgroundOutline=1;size=8.999999999999886;rotation=-90;" parent="1" vertex="1">
          <mxGeometry x="635.63" y="640" width="57.5" height="308.75" as="geometry" />
        </mxCell>
        <mxCell id="36dtRS3hENfDoWUXv9Cl-34" style="edgeStyle=orthogonalEdgeStyle;rounded=0;orthogonalLoop=1;jettySize=auto;html=1;exitX=0;exitY=0.5;exitDx=0;exitDy=0;entryX=0;entryY=0.5;entryDx=0;entryDy=0;" parent="1" source="36dtRS3hENfDoWUXv9Cl-12" target="36dtRS3hENfDoWUXv9Cl-28" edge="1">
          <mxGeometry relative="1" as="geometry">
            <Array as="points">
              <mxPoint x="711" y="860" />
              <mxPoint x="919" y="860" />
            </Array>
          </mxGeometry>
        </mxCell>
        <mxCell id="36dtRS3hENfDoWUXv9Cl-12" value="detail 1" style="ellipse;whiteSpace=wrap;html=1;direction=north;textDirection=vertical-lr;verticalAlign=top;flipH=1;flipV=1;" parent="1" vertex="1">
          <mxGeometry x="695" y="768.62" width="31.5" height="52" as="geometry" />
        </mxCell>
        <mxCell id="36dtRS3hENfDoWUXv9Cl-33" style="edgeStyle=orthogonalEdgeStyle;rounded=0;orthogonalLoop=1;jettySize=auto;html=1;exitX=0;exitY=0.5;exitDx=0;exitDy=0;entryX=0;entryY=0.5;entryDx=0;entryDy=0;" parent="1" source="36dtRS3hENfDoWUXv9Cl-13" target="36dtRS3hENfDoWUXv9Cl-28" edge="1">
          <mxGeometry relative="1" as="geometry">
            <Array as="points">
              <mxPoint x="791" y="860" />
              <mxPoint x="919" y="860" />
            </Array>
          </mxGeometry>
        </mxCell>
        <mxCell id="36dtRS3hENfDoWUXv9Cl-36" value="&lt;span&gt;&amp;nbsp;过滤子操作&amp;nbsp;&lt;/span&gt;" style="edgeLabel;html=1;align=center;verticalAlign=middle;resizable=0;points=[];labelBorderColor=default;fontSize=9;" parent="36dtRS3hENfDoWUXv9Cl-33" vertex="1" connectable="0">
          <mxGeometry x="-0.1143" relative="1" as="geometry">
            <mxPoint x="5" as="offset" />
          </mxGeometry>
        </mxCell>
        <mxCell id="36dtRS3hENfDoWUXv9Cl-13" value="extra 1" style="ellipse;whiteSpace=wrap;html=1;direction=north;textDirection=vertical-lr;verticalAlign=top;flipH=1;flipV=1;" parent="1" vertex="1">
          <mxGeometry x="775" y="768.62" width="31.5" height="52" as="geometry" />
        </mxCell>
        <mxCell id="36dtRS3hENfDoWUXv9Cl-14" value="info 2" style="ellipse;whiteSpace=wrap;html=1;direction=north;textDirection=vertical-lr;verticalAlign=top;flipH=1;flipV=1;" parent="1" vertex="1">
          <mxGeometry x="655" y="768.62" width="31.5" height="52" as="geometry" />
        </mxCell>
        <mxCell id="36dtRS3hENfDoWUXv9Cl-15" value="extra 2" style="ellipse;whiteSpace=wrap;html=1;direction=north;textDirection=vertical-lr;verticalAlign=top;flipH=1;flipV=1;" parent="1" vertex="1">
          <mxGeometry x="575" y="768.62" width="31.5" height="52" as="geometry" />
        </mxCell>
        <mxCell id="36dtRS3hENfDoWUXv9Cl-37" style="edgeStyle=orthogonalEdgeStyle;rounded=0;orthogonalLoop=1;jettySize=auto;html=1;exitX=0;exitY=0.5;exitDx=0;exitDy=0;entryX=0;entryY=0.5;entryDx=0;entryDy=0;strokeColor=#3399FF;" parent="1" source="36dtRS3hENfDoWUXv9Cl-16" target="36dtRS3hENfDoWUXv9Cl-30" edge="1">
          <mxGeometry relative="1" as="geometry">
            <Array as="points">
              <mxPoint x="631" y="890.62" />
              <mxPoint x="957" y="890.62" />
            </Array>
          </mxGeometry>
        </mxCell>
        <mxCell id="36dtRS3hENfDoWUXv9Cl-16" value="info 3" style="ellipse;whiteSpace=wrap;html=1;direction=north;textDirection=vertical-lr;verticalAlign=top;flipH=1;flipV=1;" parent="1" vertex="1">
          <mxGeometry x="615" y="768.62" width="31.5" height="52" as="geometry" />
        </mxCell>
        <mxCell id="36dtRS3hENfDoWUXv9Cl-39" style="edgeStyle=orthogonalEdgeStyle;rounded=0;orthogonalLoop=1;jettySize=auto;html=1;exitX=0;exitY=0.5;exitDx=0;exitDy=0;entryX=0;entryY=0.5;entryDx=0;entryDy=0;strokeColor=#3399FF;" parent="1" source="36dtRS3hENfDoWUXv9Cl-17" target="36dtRS3hENfDoWUXv9Cl-30" edge="1">
          <mxGeometry relative="1" as="geometry">
            <Array as="points">
              <mxPoint x="751" y="890.62" />
              <mxPoint x="957" y="890.62" />
            </Array>
          </mxGeometry>
        </mxCell>
        <mxCell id="36dtRS3hENfDoWUXv9Cl-40" value="&amp;nbsp;过滤子操作&amp;nbsp;" style="edgeLabel;html=1;align=center;verticalAlign=middle;resizable=0;points=[];fontSize=9;labelBorderColor=#3399FF;fontColor=#3399FF;" parent="36dtRS3hENfDoWUXv9Cl-39" vertex="1" connectable="0">
          <mxGeometry x="-0.0039" relative="1" as="geometry">
            <mxPoint x="-5" as="offset" />
          </mxGeometry>
        </mxCell>
        <mxCell id="36dtRS3hENfDoWUXv9Cl-17" value="detail 3" style="ellipse;whiteSpace=wrap;html=1;direction=north;textDirection=vertical-lr;verticalAlign=top;flipH=1;flipV=1;" parent="1" vertex="1">
          <mxGeometry x="735" y="768.62" width="31.5" height="52" as="geometry" />
        </mxCell>
        <mxCell id="36dtRS3hENfDoWUXv9Cl-18" style="edgeStyle=orthogonalEdgeStyle;rounded=0;orthogonalLoop=1;jettySize=auto;html=1;exitX=1;exitY=0.5;exitDx=0;exitDy=0;entryX=0.5;entryY=0;entryDx=0;entryDy=0;entryPerimeter=0;" parent="1" source="36dtRS3hENfDoWUXv9Cl-3" target="36dtRS3hENfDoWUXv9Cl-10" edge="1">
          <mxGeometry relative="1" as="geometry" />
        </mxCell>
        <mxCell id="36dtRS3hENfDoWUXv9Cl-21" style="edgeStyle=orthogonalEdgeStyle;rounded=0;orthogonalLoop=1;jettySize=auto;html=1;exitX=1;exitY=0.5;exitDx=0;exitDy=0;entryX=0.5;entryY=0;entryDx=0;entryDy=0;entryPerimeter=0;" parent="1" source="36dtRS3hENfDoWUXv9Cl-5" target="36dtRS3hENfDoWUXv9Cl-10" edge="1">
          <mxGeometry relative="1" as="geometry" />
        </mxCell>
        <mxCell id="36dtRS3hENfDoWUXv9Cl-22" style="edgeStyle=orthogonalEdgeStyle;rounded=0;orthogonalLoop=1;jettySize=auto;html=1;exitX=1;exitY=0.5;exitDx=0;exitDy=0;entryX=0.5;entryY=0;entryDx=0;entryDy=0;entryPerimeter=0;" parent="1" source="36dtRS3hENfDoWUXv9Cl-7" target="36dtRS3hENfDoWUXv9Cl-10" edge="1">
          <mxGeometry relative="1" as="geometry" />
        </mxCell>
        <mxCell id="36dtRS3hENfDoWUXv9Cl-23" style="edgeStyle=orthogonalEdgeStyle;rounded=0;orthogonalLoop=1;jettySize=auto;html=1;exitX=1;exitY=0.5;exitDx=0;exitDy=0;entryX=0.5;entryY=0;entryDx=0;entryDy=0;entryPerimeter=0;" parent="1" source="36dtRS3hENfDoWUXv9Cl-6" target="36dtRS3hENfDoWUXv9Cl-10" edge="1">
          <mxGeometry relative="1" as="geometry" />
        </mxCell>
        <mxCell id="36dtRS3hENfDoWUXv9Cl-24" style="edgeStyle=orthogonalEdgeStyle;rounded=0;orthogonalLoop=1;jettySize=auto;html=1;exitX=1;exitY=0.5;exitDx=0;exitDy=0;entryX=0.5;entryY=0;entryDx=0;entryDy=0;entryPerimeter=0;" parent="1" source="36dtRS3hENfDoWUXv9Cl-8" target="36dtRS3hENfDoWUXv9Cl-10" edge="1">
          <mxGeometry relative="1" as="geometry" />
        </mxCell>
        <mxCell id="36dtRS3hENfDoWUXv9Cl-25" style="edgeStyle=orthogonalEdgeStyle;rounded=0;orthogonalLoop=1;jettySize=auto;html=1;exitX=1;exitY=0.5;exitDx=0;exitDy=0;entryX=0.5;entryY=0;entryDx=0;entryDy=0;entryPerimeter=0;" parent="1" source="36dtRS3hENfDoWUXv9Cl-9" target="36dtRS3hENfDoWUXv9Cl-10" edge="1">
          <mxGeometry relative="1" as="geometry" />
        </mxCell>
        <mxCell id="36dtRS3hENfDoWUXv9Cl-27" value="FilterMsg" style="text;html=1;align=center;verticalAlign=middle;resizable=0;points=[];autosize=1;strokeColor=none;fillColor=none;fontSize=17;" parent="1" vertex="1">
          <mxGeometry x="897" y="729" width="90" height="30" as="geometry" />
        </mxCell>
        <mxCell id="36dtRS3hENfDoWUXv9Cl-28" value="info 1" style="ellipse;whiteSpace=wrap;html=1;direction=north;textDirection=vertical-lr;verticalAlign=top;flipH=1;flipV=1;" parent="1" vertex="1">
          <mxGeometry x="903" y="768.37" width="31.5" height="52" as="geometry" />
        </mxCell>
        <mxCell id="36dtRS3hENfDoWUXv9Cl-29" value="info 2" style="ellipse;whiteSpace=wrap;html=1;direction=north;textDirection=vertical-lr;verticalAlign=top;flipH=1;flipV=1;" parent="1" vertex="1">
          <mxGeometry x="980" y="768.37" width="31.5" height="52" as="geometry" />
        </mxCell>
        <mxCell id="36dtRS3hENfDoWUXv9Cl-30" value="info 3" style="ellipse;whiteSpace=wrap;html=1;direction=north;textDirection=vertical-lr;verticalAlign=top;flipH=1;flipV=1;" parent="1" vertex="1">
          <mxGeometry x="940.93" y="768.37" width="31.5" height="52" as="geometry" />
        </mxCell>
        <mxCell id="36dtRS3hENfDoWUXv9Cl-46" style="edgeStyle=orthogonalEdgeStyle;rounded=0;orthogonalLoop=1;jettySize=auto;html=1;exitX=0.5;exitY=1;exitDx=0;exitDy=0;exitPerimeter=0;entryX=0.5;entryY=0;entryDx=0;entryDy=0;entryPerimeter=0;" parent="1" source="36dtRS3hENfDoWUXv9Cl-10" target="36dtRS3hENfDoWUXv9Cl-26" edge="1">
          <mxGeometry relative="1" as="geometry" />
        </mxCell>
        <mxCell id="36dtRS3hENfDoWUXv9Cl-47" style="edgeStyle=orthogonalEdgeStyle;rounded=0;orthogonalLoop=1;jettySize=auto;html=1;exitX=0;exitY=0.5;exitDx=0;exitDy=0;entryX=0.983;entryY=0.483;entryDx=0;entryDy=0;entryPerimeter=0;strokeColor=#FF6666;" parent="1" source="36dtRS3hENfDoWUXv9Cl-15" target="36dtRS3hENfDoWUXv9Cl-29" edge="1">
          <mxGeometry relative="1" as="geometry">
            <Array as="points">
              <mxPoint x="589" y="925.62" />
              <mxPoint x="996" y="925.62" />
            </Array>
          </mxGeometry>
        </mxCell>
        <mxCell id="36dtRS3hENfDoWUXv9Cl-48" style="edgeStyle=orthogonalEdgeStyle;rounded=0;orthogonalLoop=1;jettySize=auto;html=1;exitX=0;exitY=0.5;exitDx=0;exitDy=0;entryX=0.993;entryY=0.498;entryDx=0;entryDy=0;entryPerimeter=0;strokeColor=#FF6666;" parent="1" edge="1">
          <mxGeometry relative="1" as="geometry">
            <mxPoint x="668.8027901640291" y="820.4205303266143" as="sourcePoint" />
            <mxPoint x="995.8129999999999" y="819.0059999999997" as="targetPoint" />
            <Array as="points">
              <mxPoint x="669" y="925.62" />
              <mxPoint x="996" y="925.62" />
            </Array>
          </mxGeometry>
        </mxCell>
        <mxCell id="36dtRS3hENfDoWUXv9Cl-49" value="&lt;span style=&quot;color: rgba(0, 0, 0, 0); font-family: monospace; font-size: 0px; text-align: start; background-color: rgb(251, 251, 251);&quot;&gt;%3CmxGraphModel%3E%3Croot%3E%3CmxCell%20id%3D%220%22%2F%3E%3CmxCell%20id%3D%221%22%20parent%3D%220%22%2F%3E%3CmxCell%20id%3D%222%22%20value%3D%22%26lt%3Bfont%20color%3D%26quot%3B%23ff6666%26quot%3B%26gt%3B%26amp%3Bnbsp%3B%E6%95%B4%E5%90%88%E5%AD%90%E6%93%8D%E4%BD%9C%26amp%3Bnbsp%3B%26lt%3B%2Ffont%26gt%3B%22%20style%3D%22edgeLabel%3Bhtml%3D1%3Balign%3Dcenter%3BverticalAlign%3Dmiddle%3Bresizable%3D0%3Bpoints%3D%5B%5D%3BlabelBorderColor%3D%23FF6666%3BfontSize%3D9%3B%22%20vertex%3D%221%22%20connectable%3D%220%22%20parent%3D%221%22%3E%3CmxGeometry%20x%3D%22935.9498633165183%22%20y%3D%221243.5853658536587%22%20as%3D%22geometry%22%2F%3E%3C%2FmxCell%3E%3C%2Froot%3E%3C%2FmxGraphModel%3E&lt;/span&gt;" style="edgeLabel;html=1;align=center;verticalAlign=middle;resizable=0;points=[];" parent="36dtRS3hENfDoWUXv9Cl-48" vertex="1" connectable="0">
          <mxGeometry x="0.0422" y="1" relative="1" as="geometry">
            <mxPoint as="offset" />
          </mxGeometry>
        </mxCell>
        <mxCell id="36dtRS3hENfDoWUXv9Cl-50" value="&lt;span style=&quot;color: rgb(255, 102, 102); font-size: 9px;&quot;&gt;&amp;nbsp;整合子操作&amp;nbsp;&lt;/span&gt;" style="edgeLabel;html=1;align=center;verticalAlign=middle;resizable=0;points=[];labelBorderColor=#FF6666;" parent="36dtRS3hENfDoWUXv9Cl-48" vertex="1" connectable="0">
          <mxGeometry x="0.0547" y="1" relative="1" as="geometry">
            <mxPoint as="offset" />
          </mxGeometry>
        </mxCell>
        <mxCell id="u5F5FRf6ZBEcTlfiqtld-1" value="Processor" style="rounded=0;whiteSpace=wrap;html=1;fontStyle=1;fontSize=22;rotation=-90;fontColor=#666666;" parent="1" vertex="1">
          <mxGeometry x="1011.5" y="749.37" width="295.5" height="90" as="geometry" />
        </mxCell>
        <mxCell id="u5F5FRf6ZBEcTlfiqtld-3" value="" style="rounded=0;whiteSpace=wrap;html=1;fillColor=none;dashed=1;" parent="1" vertex="1">
          <mxGeometry x="245" y="250" width="415" height="200" as="geometry" />
        </mxCell>
        <mxCell id="M3Sqn7MmRrSv-XSWxqyc-1" value="" style="verticalLabelPosition=bottom;verticalAlign=top;html=1;shape=mxgraph.basic.arc;startAngle=0.21827448256944645;endAngle=0.16027662358221492;rotation=291;" parent="1" vertex="1">
          <mxGeometry x="960" y="1547.5" width="200" height="200" as="geometry" />
        </mxCell>
        <mxCell id="M3Sqn7MmRrSv-XSWxqyc-2" value="" style="rounded=0;whiteSpace=wrap;html=1;fillColor=none;dashed=1;strokeColor=#666666;" parent="1" vertex="1">
          <mxGeometry x="245" y="1643" width="405" height="190" as="geometry" />
        </mxCell>
        <mxCell id="M3Sqn7MmRrSv-XSWxqyc-3" style="edgeStyle=orthogonalEdgeStyle;rounded=0;orthogonalLoop=1;jettySize=auto;html=1;exitX=1;exitY=0.5;exitDx=0;exitDy=0;entryX=0;entryY=0.5;entryDx=0;entryDy=0;entryPerimeter=0;" parent="1" source="M3Sqn7MmRrSv-XSWxqyc-4" target="M3Sqn7MmRrSv-XSWxqyc-65" edge="1">
          <mxGeometry relative="1" as="geometry">
            <mxPoint x="990" y="1515" as="targetPoint" />
          </mxGeometry>
        </mxCell>
        <mxCell id="M3Sqn7MmRrSv-XSWxqyc-4" value="" style="rounded=0;whiteSpace=wrap;html=1;fillColor=none;dashed=1;strokeColor=#666666;" parent="1" vertex="1">
          <mxGeometry x="245" y="1420" width="405" height="190" as="geometry" />
        </mxCell>
        <mxCell id="M3Sqn7MmRrSv-XSWxqyc-5" value="" style="rounded=0;whiteSpace=wrap;html=1;fillColor=none;dashed=1;strokeColor=#666666;" parent="1" vertex="1">
          <mxGeometry x="245" y="1200" width="405" height="190" as="geometry" />
        </mxCell>
        <mxCell id="M3Sqn7MmRrSv-XSWxqyc-6" style="edgeStyle=orthogonalEdgeStyle;rounded=0;orthogonalLoop=1;jettySize=auto;html=1;exitX=1;exitY=0.5;exitDx=0;exitDy=0;" parent="1" source="M3Sqn7MmRrSv-XSWxqyc-8" target="M3Sqn7MmRrSv-XSWxqyc-15" edge="1">
          <mxGeometry relative="1" as="geometry" />
        </mxCell>
        <mxCell id="M3Sqn7MmRrSv-XSWxqyc-7" value="&amp;nbsp;2&amp;nbsp;" style="edgeLabel;html=1;align=center;verticalAlign=middle;resizable=0;points=[];" parent="M3Sqn7MmRrSv-XSWxqyc-6" vertex="1" connectable="0">
          <mxGeometry x="-0.2078" y="2" relative="1" as="geometry">
            <mxPoint x="-4" as="offset" />
          </mxGeometry>
        </mxCell>
        <mxCell id="M3Sqn7MmRrSv-XSWxqyc-8" value="version 1" style="ellipse;whiteSpace=wrap;html=1;" parent="1" vertex="1">
          <mxGeometry x="260" y="1212.5" width="90" height="45" as="geometry" />
        </mxCell>
        <mxCell id="M3Sqn7MmRrSv-XSWxqyc-9" value="version 2" style="ellipse;whiteSpace=wrap;html=1;" parent="1" vertex="1">
          <mxGeometry x="260" y="1272.5" width="90" height="45" as="geometry" />
        </mxCell>
        <mxCell id="M3Sqn7MmRrSv-XSWxqyc-10" value="version 3" style="ellipse;whiteSpace=wrap;html=1;" parent="1" vertex="1">
          <mxGeometry x="260" y="1332.5" width="90" height="45" as="geometry" />
        </mxCell>
        <mxCell id="M3Sqn7MmRrSv-XSWxqyc-11" style="edgeStyle=orthogonalEdgeStyle;rounded=0;orthogonalLoop=1;jettySize=auto;html=1;exitX=0.5;exitY=0;exitDx=0;exitDy=0;exitPerimeter=0;entryX=0;entryY=0.5;entryDx=0;entryDy=0;" parent="1" source="M3Sqn7MmRrSv-XSWxqyc-15" target="M3Sqn7MmRrSv-XSWxqyc-21" edge="1">
          <mxGeometry relative="1" as="geometry">
            <mxPoint x="590.0000000000005" y="1237.5" as="targetPoint" />
          </mxGeometry>
        </mxCell>
        <mxCell id="M3Sqn7MmRrSv-XSWxqyc-12" value="&lt;font color=&quot;#ff3333&quot;&gt;&amp;nbsp;Version 1 &amp;lt; 2&amp;nbsp;&lt;/font&gt;" style="edgeLabel;html=1;align=center;verticalAlign=middle;resizable=0;points=[];labelBorderColor=#FF9999;" parent="M3Sqn7MmRrSv-XSWxqyc-11" vertex="1" connectable="0">
          <mxGeometry x="0.2292" y="1" relative="1" as="geometry">
            <mxPoint as="offset" />
          </mxGeometry>
        </mxCell>
        <mxCell id="M3Sqn7MmRrSv-XSWxqyc-13" value="" style="edgeStyle=orthogonalEdgeStyle;rounded=0;orthogonalLoop=1;jettySize=auto;html=1;exitX=0.5;exitY=1;exitDx=0;exitDy=0;exitPerimeter=0;entryX=0;entryY=0.5;entryDx=0;entryDy=0;" parent="1" source="M3Sqn7MmRrSv-XSWxqyc-15" target="M3Sqn7MmRrSv-XSWxqyc-20" edge="1">
          <mxGeometry relative="1" as="geometry">
            <Array as="points">
              <mxPoint x="465" y="1354.5" />
            </Array>
          </mxGeometry>
        </mxCell>
        <mxCell id="M3Sqn7MmRrSv-XSWxqyc-14" value="&lt;font color=&quot;#00cc66&quot;&gt;&amp;nbsp;Version 3 &amp;gt; 2&amp;nbsp;&lt;/font&gt;" style="edgeLabel;html=1;align=center;verticalAlign=middle;resizable=0;points=[];labelBorderColor=#B9E0A5;" parent="M3Sqn7MmRrSv-XSWxqyc-13" vertex="1" connectable="0">
          <mxGeometry x="0.2326" y="2" relative="1" as="geometry">
            <mxPoint as="offset" />
          </mxGeometry>
        </mxCell>
        <mxCell id="M3Sqn7MmRrSv-XSWxqyc-15" value="Lock&lt;br&gt;&lt;font color=&quot;#66b2ff&quot; style=&quot;font-size: 10px;&quot;&gt;( val: version 2 )&lt;/font&gt;" style="shape=cylinder3;whiteSpace=wrap;html=1;boundedLbl=1;backgroundOutline=1;size=9.428571428571388;fillColor=#ffe6cc;strokeColor=#d79b00;" parent="1" vertex="1">
          <mxGeometry x="420" y="1267.5" width="90" height="55" as="geometry" />
        </mxCell>
        <mxCell id="M3Sqn7MmRrSv-XSWxqyc-16" style="edgeStyle=orthogonalEdgeStyle;rounded=0;orthogonalLoop=1;jettySize=auto;html=1;exitX=1;exitY=0.5;exitDx=0;exitDy=0;entryX=0;entryY=0.5;entryDx=0;entryDy=0;entryPerimeter=0;" parent="1" source="M3Sqn7MmRrSv-XSWxqyc-9" target="M3Sqn7MmRrSv-XSWxqyc-15" edge="1">
          <mxGeometry relative="1" as="geometry" />
        </mxCell>
        <mxCell id="M3Sqn7MmRrSv-XSWxqyc-17" value="&amp;nbsp;1&amp;nbsp;" style="edgeLabel;html=1;align=center;verticalAlign=middle;resizable=0;points=[];" parent="M3Sqn7MmRrSv-XSWxqyc-16" vertex="1" connectable="0">
          <mxGeometry x="-0.1796" y="3" relative="1" as="geometry">
            <mxPoint x="4" y="2" as="offset" />
          </mxGeometry>
        </mxCell>
        <mxCell id="M3Sqn7MmRrSv-XSWxqyc-18" style="edgeStyle=orthogonalEdgeStyle;rounded=0;orthogonalLoop=1;jettySize=auto;html=1;exitX=1;exitY=0.5;exitDx=0;exitDy=0;entryX=0.5;entryY=1;entryDx=0;entryDy=0;entryPerimeter=0;" parent="1" source="M3Sqn7MmRrSv-XSWxqyc-10" target="M3Sqn7MmRrSv-XSWxqyc-15" edge="1">
          <mxGeometry relative="1" as="geometry">
            <Array as="points">
              <mxPoint x="465" y="1354.5" />
            </Array>
          </mxGeometry>
        </mxCell>
        <mxCell id="M3Sqn7MmRrSv-XSWxqyc-19" value="&amp;nbsp;3&amp;nbsp;" style="edgeLabel;html=1;align=center;verticalAlign=middle;resizable=0;points=[];" parent="M3Sqn7MmRrSv-XSWxqyc-18" vertex="1" connectable="0">
          <mxGeometry x="-0.2619" y="1" relative="1" as="geometry">
            <mxPoint as="offset" />
          </mxGeometry>
        </mxCell>
        <mxCell id="M3Sqn7MmRrSv-XSWxqyc-20" value="" style="ellipse;whiteSpace=wrap;html=1;aspect=fixed;strokeColor=#00CC66;" parent="1" vertex="1">
          <mxGeometry x="590" y="1330" width="50" height="50" as="geometry" />
        </mxCell>
        <mxCell id="M3Sqn7MmRrSv-XSWxqyc-21" value="" style="ellipse;whiteSpace=wrap;html=1;aspect=fixed;strokeColor=#FF3333;" parent="1" vertex="1">
          <mxGeometry x="590" y="1210" width="50" height="50" as="geometry" />
        </mxCell>
        <mxCell id="M3Sqn7MmRrSv-XSWxqyc-22" value="" style="verticalLabelPosition=bottom;verticalAlign=top;html=1;shape=mxgraph.basic.x;aspect=fixed;fillColor=#f8cecc;strokeColor=#FF5226;" parent="1" vertex="1">
          <mxGeometry x="600" y="1220" width="30" height="30" as="geometry" />
        </mxCell>
        <mxCell id="M3Sqn7MmRrSv-XSWxqyc-23" value="" style="verticalLabelPosition=bottom;verticalAlign=top;html=1;shape=mxgraph.basic.tick;aspect=fixed;fillColor=#d5e8d4;strokeColor=#82b366;" parent="1" vertex="1">
          <mxGeometry x="597" y="1338.38" width="36" height="33.24" as="geometry" />
        </mxCell>
        <mxCell id="M3Sqn7MmRrSv-XSWxqyc-24" value="&lt;font color=&quot;#666666&quot;&gt;订&lt;/font&gt;&lt;div&gt;&lt;font color=&quot;#666666&quot;&gt;单&lt;/font&gt;&lt;/div&gt;&lt;div&gt;&lt;font color=&quot;#666666&quot;&gt;信&lt;/font&gt;&lt;/div&gt;&lt;div&gt;&lt;font color=&quot;#666666&quot;&gt;息&lt;/font&gt;&lt;/div&gt;" style="rounded=0;whiteSpace=wrap;html=1;fontSize=24;strokeColor=#666666;" parent="1" vertex="1">
          <mxGeometry x="190" y="1200" width="55" height="190" as="geometry" />
        </mxCell>
        <mxCell id="M3Sqn7MmRrSv-XSWxqyc-25" style="edgeStyle=orthogonalEdgeStyle;rounded=0;orthogonalLoop=1;jettySize=auto;html=1;exitX=1;exitY=0.5;exitDx=0;exitDy=0;" parent="1" source="M3Sqn7MmRrSv-XSWxqyc-27" target="M3Sqn7MmRrSv-XSWxqyc-34" edge="1">
          <mxGeometry relative="1" as="geometry" />
        </mxCell>
        <mxCell id="M3Sqn7MmRrSv-XSWxqyc-26" value="&amp;nbsp;2&amp;nbsp;" style="edgeLabel;html=1;align=center;verticalAlign=middle;resizable=0;points=[];" parent="M3Sqn7MmRrSv-XSWxqyc-25" vertex="1" connectable="0">
          <mxGeometry x="-0.2078" y="2" relative="1" as="geometry">
            <mxPoint x="-4" as="offset" />
          </mxGeometry>
        </mxCell>
        <mxCell id="M3Sqn7MmRrSv-XSWxqyc-27" value="version 1" style="ellipse;whiteSpace=wrap;html=1;" parent="1" vertex="1">
          <mxGeometry x="260" y="1432.5" width="90" height="45" as="geometry" />
        </mxCell>
        <mxCell id="M3Sqn7MmRrSv-XSWxqyc-28" value="version 2" style="ellipse;whiteSpace=wrap;html=1;" parent="1" vertex="1">
          <mxGeometry x="260" y="1492.5" width="90" height="45" as="geometry" />
        </mxCell>
        <mxCell id="M3Sqn7MmRrSv-XSWxqyc-29" value="version 3" style="ellipse;whiteSpace=wrap;html=1;" parent="1" vertex="1">
          <mxGeometry x="260" y="1552.5" width="90" height="45" as="geometry" />
        </mxCell>
        <mxCell id="M3Sqn7MmRrSv-XSWxqyc-30" style="edgeStyle=orthogonalEdgeStyle;rounded=0;orthogonalLoop=1;jettySize=auto;html=1;exitX=0.5;exitY=0;exitDx=0;exitDy=0;exitPerimeter=0;entryX=0;entryY=0.5;entryDx=0;entryDy=0;" parent="1" source="M3Sqn7MmRrSv-XSWxqyc-34" target="M3Sqn7MmRrSv-XSWxqyc-40" edge="1">
          <mxGeometry relative="1" as="geometry">
            <mxPoint x="590.0000000000005" y="1457.5" as="targetPoint" />
          </mxGeometry>
        </mxCell>
        <mxCell id="M3Sqn7MmRrSv-XSWxqyc-31" value="&lt;font color=&quot;#ff3333&quot;&gt;&amp;nbsp;Version 1 &amp;lt; 2&amp;nbsp;&lt;/font&gt;" style="edgeLabel;html=1;align=center;verticalAlign=middle;resizable=0;points=[];labelBorderColor=#FF9999;" parent="M3Sqn7MmRrSv-XSWxqyc-30" vertex="1" connectable="0">
          <mxGeometry x="0.2292" y="1" relative="1" as="geometry">
            <mxPoint as="offset" />
          </mxGeometry>
        </mxCell>
        <mxCell id="M3Sqn7MmRrSv-XSWxqyc-32" value="" style="edgeStyle=orthogonalEdgeStyle;rounded=0;orthogonalLoop=1;jettySize=auto;html=1;exitX=0.5;exitY=1;exitDx=0;exitDy=0;exitPerimeter=0;entryX=0;entryY=0.5;entryDx=0;entryDy=0;" parent="1" source="M3Sqn7MmRrSv-XSWxqyc-34" target="M3Sqn7MmRrSv-XSWxqyc-39" edge="1">
          <mxGeometry relative="1" as="geometry">
            <Array as="points">
              <mxPoint x="465" y="1574.5" />
            </Array>
          </mxGeometry>
        </mxCell>
        <mxCell id="M3Sqn7MmRrSv-XSWxqyc-33" value="&lt;font color=&quot;#00cc66&quot;&gt;&amp;nbsp;Version 3 &amp;gt; 2&amp;nbsp;&lt;/font&gt;" style="edgeLabel;html=1;align=center;verticalAlign=middle;resizable=0;points=[];labelBorderColor=#B9E0A5;" parent="M3Sqn7MmRrSv-XSWxqyc-32" vertex="1" connectable="0">
          <mxGeometry x="0.2326" y="2" relative="1" as="geometry">
            <mxPoint as="offset" />
          </mxGeometry>
        </mxCell>
        <mxCell id="M3Sqn7MmRrSv-XSWxqyc-34" value="Lock&lt;br&gt;&lt;font color=&quot;#66b2ff&quot; style=&quot;font-size: 10px;&quot;&gt;( val: version 2 )&lt;/font&gt;" style="shape=cylinder3;whiteSpace=wrap;html=1;boundedLbl=1;backgroundOutline=1;size=9.428571428571388;fillColor=#ffe6cc;strokeColor=#d79b00;" parent="1" vertex="1">
          <mxGeometry x="420" y="1487.5" width="90" height="55" as="geometry" />
        </mxCell>
        <mxCell id="M3Sqn7MmRrSv-XSWxqyc-35" style="edgeStyle=orthogonalEdgeStyle;rounded=0;orthogonalLoop=1;jettySize=auto;html=1;exitX=1;exitY=0.5;exitDx=0;exitDy=0;entryX=0;entryY=0.5;entryDx=0;entryDy=0;entryPerimeter=0;" parent="1" source="M3Sqn7MmRrSv-XSWxqyc-28" target="M3Sqn7MmRrSv-XSWxqyc-34" edge="1">
          <mxGeometry relative="1" as="geometry" />
        </mxCell>
        <mxCell id="M3Sqn7MmRrSv-XSWxqyc-36" value="&amp;nbsp;1&amp;nbsp;" style="edgeLabel;html=1;align=center;verticalAlign=middle;resizable=0;points=[];" parent="M3Sqn7MmRrSv-XSWxqyc-35" vertex="1" connectable="0">
          <mxGeometry x="-0.1796" y="3" relative="1" as="geometry">
            <mxPoint x="4" y="2" as="offset" />
          </mxGeometry>
        </mxCell>
        <mxCell id="M3Sqn7MmRrSv-XSWxqyc-37" style="edgeStyle=orthogonalEdgeStyle;rounded=0;orthogonalLoop=1;jettySize=auto;html=1;exitX=1;exitY=0.5;exitDx=0;exitDy=0;entryX=0.5;entryY=1;entryDx=0;entryDy=0;entryPerimeter=0;" parent="1" source="M3Sqn7MmRrSv-XSWxqyc-29" target="M3Sqn7MmRrSv-XSWxqyc-34" edge="1">
          <mxGeometry relative="1" as="geometry">
            <Array as="points">
              <mxPoint x="465" y="1574.5" />
            </Array>
          </mxGeometry>
        </mxCell>
        <mxCell id="M3Sqn7MmRrSv-XSWxqyc-38" value="&amp;nbsp;3&amp;nbsp;" style="edgeLabel;html=1;align=center;verticalAlign=middle;resizable=0;points=[];" parent="M3Sqn7MmRrSv-XSWxqyc-37" vertex="1" connectable="0">
          <mxGeometry x="-0.2619" y="1" relative="1" as="geometry">
            <mxPoint as="offset" />
          </mxGeometry>
        </mxCell>
        <mxCell id="M3Sqn7MmRrSv-XSWxqyc-39" value="" style="ellipse;whiteSpace=wrap;html=1;aspect=fixed;strokeColor=#00CC66;" parent="1" vertex="1">
          <mxGeometry x="590" y="1550" width="50" height="50" as="geometry" />
        </mxCell>
        <mxCell id="M3Sqn7MmRrSv-XSWxqyc-40" value="" style="ellipse;whiteSpace=wrap;html=1;aspect=fixed;strokeColor=#FF3333;" parent="1" vertex="1">
          <mxGeometry x="590" y="1430" width="50" height="50" as="geometry" />
        </mxCell>
        <mxCell id="M3Sqn7MmRrSv-XSWxqyc-41" value="" style="verticalLabelPosition=bottom;verticalAlign=top;html=1;shape=mxgraph.basic.x;aspect=fixed;fillColor=#f8cecc;strokeColor=#FF5226;" parent="1" vertex="1">
          <mxGeometry x="600" y="1440" width="30" height="30" as="geometry" />
        </mxCell>
        <mxCell id="M3Sqn7MmRrSv-XSWxqyc-42" value="" style="verticalLabelPosition=bottom;verticalAlign=top;html=1;shape=mxgraph.basic.tick;aspect=fixed;fillColor=#d5e8d4;strokeColor=#82b366;" parent="1" vertex="1">
          <mxGeometry x="597" y="1558.38" width="36" height="33.24" as="geometry" />
        </mxCell>
        <mxCell id="M3Sqn7MmRrSv-XSWxqyc-43" value="&lt;font color=&quot;#666666&quot;&gt;订&lt;/font&gt;&lt;div&gt;&lt;font color=&quot;#666666&quot;&gt;单&lt;/font&gt;&lt;/div&gt;&lt;div&gt;&lt;font color=&quot;#666666&quot;&gt;明&lt;/font&gt;&lt;/div&gt;&lt;div&gt;&lt;font color=&quot;#666666&quot;&gt;细&lt;/font&gt;&lt;/div&gt;" style="rounded=0;whiteSpace=wrap;html=1;fontSize=24;strokeColor=#666666;" parent="1" vertex="1">
          <mxGeometry x="190" y="1420" width="55" height="190" as="geometry" />
        </mxCell>
        <mxCell id="M3Sqn7MmRrSv-XSWxqyc-44" style="edgeStyle=orthogonalEdgeStyle;rounded=0;orthogonalLoop=1;jettySize=auto;html=1;exitX=1;exitY=0.5;exitDx=0;exitDy=0;" parent="1" source="M3Sqn7MmRrSv-XSWxqyc-46" target="M3Sqn7MmRrSv-XSWxqyc-53" edge="1">
          <mxGeometry relative="1" as="geometry" />
        </mxCell>
        <mxCell id="M3Sqn7MmRrSv-XSWxqyc-45" value="&amp;nbsp;2&amp;nbsp;" style="edgeLabel;html=1;align=center;verticalAlign=middle;resizable=0;points=[];" parent="M3Sqn7MmRrSv-XSWxqyc-44" vertex="1" connectable="0">
          <mxGeometry x="-0.2078" y="2" relative="1" as="geometry">
            <mxPoint x="-4" as="offset" />
          </mxGeometry>
        </mxCell>
        <mxCell id="M3Sqn7MmRrSv-XSWxqyc-46" value="version 1" style="ellipse;whiteSpace=wrap;html=1;" parent="1" vertex="1">
          <mxGeometry x="260" y="1655.5" width="90" height="45" as="geometry" />
        </mxCell>
        <mxCell id="M3Sqn7MmRrSv-XSWxqyc-47" value="version 2" style="ellipse;whiteSpace=wrap;html=1;" parent="1" vertex="1">
          <mxGeometry x="260" y="1715.5" width="90" height="45" as="geometry" />
        </mxCell>
        <mxCell id="M3Sqn7MmRrSv-XSWxqyc-48" value="version 3" style="ellipse;whiteSpace=wrap;html=1;" parent="1" vertex="1">
          <mxGeometry x="260" y="1775.5" width="90" height="45" as="geometry" />
        </mxCell>
        <mxCell id="M3Sqn7MmRrSv-XSWxqyc-49" style="edgeStyle=orthogonalEdgeStyle;rounded=0;orthogonalLoop=1;jettySize=auto;html=1;exitX=0.5;exitY=0;exitDx=0;exitDy=0;exitPerimeter=0;entryX=0;entryY=0.5;entryDx=0;entryDy=0;" parent="1" source="M3Sqn7MmRrSv-XSWxqyc-53" target="M3Sqn7MmRrSv-XSWxqyc-59" edge="1">
          <mxGeometry relative="1" as="geometry">
            <mxPoint x="590.0000000000005" y="1680.5" as="targetPoint" />
          </mxGeometry>
        </mxCell>
        <mxCell id="M3Sqn7MmRrSv-XSWxqyc-50" value="&lt;font color=&quot;#ff3333&quot;&gt;&amp;nbsp;Version 1 &amp;lt; 2&amp;nbsp;&lt;/font&gt;" style="edgeLabel;html=1;align=center;verticalAlign=middle;resizable=0;points=[];labelBorderColor=#FF9999;" parent="M3Sqn7MmRrSv-XSWxqyc-49" vertex="1" connectable="0">
          <mxGeometry x="0.2292" y="1" relative="1" as="geometry">
            <mxPoint as="offset" />
          </mxGeometry>
        </mxCell>
        <mxCell id="M3Sqn7MmRrSv-XSWxqyc-51" value="" style="edgeStyle=orthogonalEdgeStyle;rounded=0;orthogonalLoop=1;jettySize=auto;html=1;exitX=0.5;exitY=1;exitDx=0;exitDy=0;exitPerimeter=0;entryX=0;entryY=0.5;entryDx=0;entryDy=0;" parent="1" source="M3Sqn7MmRrSv-XSWxqyc-53" target="M3Sqn7MmRrSv-XSWxqyc-58" edge="1">
          <mxGeometry relative="1" as="geometry">
            <Array as="points">
              <mxPoint x="465" y="1797.5" />
            </Array>
          </mxGeometry>
        </mxCell>
        <mxCell id="M3Sqn7MmRrSv-XSWxqyc-52" value="&lt;font color=&quot;#00cc66&quot;&gt;&amp;nbsp;Version 3 &amp;gt; 2&amp;nbsp;&lt;/font&gt;" style="edgeLabel;html=1;align=center;verticalAlign=middle;resizable=0;points=[];labelBorderColor=#B9E0A5;" parent="M3Sqn7MmRrSv-XSWxqyc-51" vertex="1" connectable="0">
          <mxGeometry x="0.2326" y="2" relative="1" as="geometry">
            <mxPoint as="offset" />
          </mxGeometry>
        </mxCell>
        <mxCell id="M3Sqn7MmRrSv-XSWxqyc-53" value="Lock&lt;br&gt;&lt;font color=&quot;#66b2ff&quot; style=&quot;font-size: 10px;&quot;&gt;( val: version 2 )&lt;/font&gt;" style="shape=cylinder3;whiteSpace=wrap;html=1;boundedLbl=1;backgroundOutline=1;size=9.428571428571388;fillColor=#ffe6cc;strokeColor=#d79b00;" parent="1" vertex="1">
          <mxGeometry x="420" y="1710.5" width="90" height="55" as="geometry" />
        </mxCell>
        <mxCell id="M3Sqn7MmRrSv-XSWxqyc-54" style="edgeStyle=orthogonalEdgeStyle;rounded=0;orthogonalLoop=1;jettySize=auto;html=1;exitX=1;exitY=0.5;exitDx=0;exitDy=0;entryX=0;entryY=0.5;entryDx=0;entryDy=0;entryPerimeter=0;" parent="1" source="M3Sqn7MmRrSv-XSWxqyc-47" target="M3Sqn7MmRrSv-XSWxqyc-53" edge="1">
          <mxGeometry relative="1" as="geometry" />
        </mxCell>
        <mxCell id="M3Sqn7MmRrSv-XSWxqyc-55" value="&amp;nbsp;1&amp;nbsp;" style="edgeLabel;html=1;align=center;verticalAlign=middle;resizable=0;points=[];" parent="M3Sqn7MmRrSv-XSWxqyc-54" vertex="1" connectable="0">
          <mxGeometry x="-0.1796" y="3" relative="1" as="geometry">
            <mxPoint x="4" y="2" as="offset" />
          </mxGeometry>
        </mxCell>
        <mxCell id="M3Sqn7MmRrSv-XSWxqyc-56" style="edgeStyle=orthogonalEdgeStyle;rounded=0;orthogonalLoop=1;jettySize=auto;html=1;exitX=1;exitY=0.5;exitDx=0;exitDy=0;entryX=0.5;entryY=1;entryDx=0;entryDy=0;entryPerimeter=0;" parent="1" source="M3Sqn7MmRrSv-XSWxqyc-48" target="M3Sqn7MmRrSv-XSWxqyc-53" edge="1">
          <mxGeometry relative="1" as="geometry">
            <Array as="points">
              <mxPoint x="465" y="1797.5" />
            </Array>
          </mxGeometry>
        </mxCell>
        <mxCell id="M3Sqn7MmRrSv-XSWxqyc-57" value="&amp;nbsp;3&amp;nbsp;" style="edgeLabel;html=1;align=center;verticalAlign=middle;resizable=0;points=[];" parent="M3Sqn7MmRrSv-XSWxqyc-56" vertex="1" connectable="0">
          <mxGeometry x="-0.2619" y="1" relative="1" as="geometry">
            <mxPoint as="offset" />
          </mxGeometry>
        </mxCell>
        <mxCell id="M3Sqn7MmRrSv-XSWxqyc-58" value="" style="ellipse;whiteSpace=wrap;html=1;aspect=fixed;strokeColor=#00CC66;" parent="1" vertex="1">
          <mxGeometry x="590" y="1773" width="50" height="50" as="geometry" />
        </mxCell>
        <mxCell id="M3Sqn7MmRrSv-XSWxqyc-59" value="" style="ellipse;whiteSpace=wrap;html=1;aspect=fixed;strokeColor=#FF3333;" parent="1" vertex="1">
          <mxGeometry x="590" y="1653" width="50" height="50" as="geometry" />
        </mxCell>
        <mxCell id="M3Sqn7MmRrSv-XSWxqyc-60" value="" style="verticalLabelPosition=bottom;verticalAlign=top;html=1;shape=mxgraph.basic.x;aspect=fixed;fillColor=#f8cecc;strokeColor=#FF5226;" parent="1" vertex="1">
          <mxGeometry x="600" y="1663" width="30" height="30" as="geometry" />
        </mxCell>
        <mxCell id="M3Sqn7MmRrSv-XSWxqyc-61" value="" style="verticalLabelPosition=bottom;verticalAlign=top;html=1;shape=mxgraph.basic.tick;aspect=fixed;fillColor=#d5e8d4;strokeColor=#82b366;" parent="1" vertex="1">
          <mxGeometry x="597" y="1781.38" width="36" height="33.24" as="geometry" />
        </mxCell>
        <mxCell id="M3Sqn7MmRrSv-XSWxqyc-62" value="&lt;font color=&quot;#666666&quot;&gt;订&lt;/font&gt;&lt;div&gt;&lt;font color=&quot;#666666&quot;&gt;单&lt;/font&gt;&lt;/div&gt;&lt;div&gt;&lt;font color=&quot;#666666&quot;&gt;扩&lt;/font&gt;&lt;/div&gt;&lt;div&gt;&lt;font color=&quot;#666666&quot;&gt;展&lt;/font&gt;&lt;/div&gt;" style="rounded=0;whiteSpace=wrap;html=1;fontSize=24;strokeColor=#666666;" parent="1" vertex="1">
          <mxGeometry x="190" y="1643" width="55" height="190" as="geometry" />
        </mxCell>
        <mxCell id="M3Sqn7MmRrSv-XSWxqyc-63" style="edgeStyle=orthogonalEdgeStyle;rounded=0;orthogonalLoop=1;jettySize=auto;html=1;exitX=1;exitY=0.5;exitDx=0;exitDy=0;exitPerimeter=0;entryX=0.5;entryY=0;entryDx=0;entryDy=0;" parent="1" source="M3Sqn7MmRrSv-XSWxqyc-65" target="M3Sqn7MmRrSv-XSWxqyc-75" edge="1">
          <mxGeometry relative="1" as="geometry" />
        </mxCell>
        <mxCell id="M3Sqn7MmRrSv-XSWxqyc-64" value="&amp;nbsp;执行&amp;nbsp;" style="edgeLabel;html=1;align=center;verticalAlign=middle;resizable=0;points=[];" parent="M3Sqn7MmRrSv-XSWxqyc-63" vertex="1" connectable="0">
          <mxGeometry x="-0.1697" relative="1" as="geometry">
            <mxPoint as="offset" />
          </mxGeometry>
        </mxCell>
        <mxCell id="M3Sqn7MmRrSv-XSWxqyc-65" value="OrderLock&lt;br&gt;&lt;font color=&quot;#66b2ff&quot; style=&quot;font-size: 10px;&quot;&gt;( val: version 2 )&lt;/font&gt;" style="shape=cylinder3;whiteSpace=wrap;html=1;boundedLbl=1;backgroundOutline=1;size=9.428571428571388;fillColor=#ffe6cc;strokeColor=#d79b00;" parent="1" vertex="1">
          <mxGeometry x="987" y="1477.5" width="150" height="75" as="geometry" />
        </mxCell>
        <mxCell id="M3Sqn7MmRrSv-XSWxqyc-66" value="WatchDog" style="text;html=1;align=center;verticalAlign=middle;resizable=0;points=[];autosize=1;strokeColor=none;fillColor=none;fontSize=16;fontStyle=1" parent="1" vertex="1">
          <mxGeometry x="1001" y="1622" width="100" height="30" as="geometry" />
        </mxCell>
        <mxCell id="M3Sqn7MmRrSv-XSWxqyc-67" value="&amp;lt; Redis + Lua &amp;gt;" style="text;html=1;align=center;verticalAlign=middle;resizable=0;points=[];autosize=1;strokeColor=none;fillColor=none;" parent="1" vertex="1">
          <mxGeometry x="1005" y="1653" width="110" height="30" as="geometry" />
        </mxCell>
        <mxCell id="M3Sqn7MmRrSv-XSWxqyc-68" value="with timeout" style="text;html=1;align=center;verticalAlign=middle;resizable=0;points=[];autosize=1;strokeColor=none;fillColor=none;fontSize=9;fontColor=#66B2FF;" parent="1" vertex="1">
          <mxGeometry x="1083" y="1617.5" width="70" height="20" as="geometry" />
        </mxCell>
        <mxCell id="M3Sqn7MmRrSv-XSWxqyc-69" value="" style="shape=partialRectangle;whiteSpace=wrap;html=1;bottom=0;right=0;fillColor=none;rotation=218;aspect=fixed;" parent="1" vertex="1">
          <mxGeometry x="943" y="1615" width="30" height="30" as="geometry" />
        </mxCell>
        <mxCell id="M3Sqn7MmRrSv-XSWxqyc-70" value="" style="shape=partialRectangle;whiteSpace=wrap;html=1;bottom=0;right=0;fillColor=none;rotation=40;aspect=fixed;" parent="1" vertex="1">
          <mxGeometry x="1146" y="1635" width="30" height="30" as="geometry" />
        </mxCell>
        <mxCell id="M3Sqn7MmRrSv-XSWxqyc-71" value="" style="shape=partialRectangle;whiteSpace=wrap;html=1;bottom=0;right=0;fillColor=none;rotation=138;aspect=fixed;" parent="1" vertex="1">
          <mxGeometry x="1033" y="1731" width="30" height="30" as="geometry" />
        </mxCell>
        <mxCell id="M3Sqn7MmRrSv-XSWxqyc-72" style="edgeStyle=orthogonalEdgeStyle;rounded=0;orthogonalLoop=1;jettySize=auto;html=1;exitX=1;exitY=0.5;exitDx=0;exitDy=0;entryX=0;entryY=0.5;entryDx=0;entryDy=0;entryPerimeter=0;" parent="1" source="M3Sqn7MmRrSv-XSWxqyc-2" target="M3Sqn7MmRrSv-XSWxqyc-65" edge="1">
          <mxGeometry relative="1" as="geometry" />
        </mxCell>
        <mxCell id="M3Sqn7MmRrSv-XSWxqyc-73" style="edgeStyle=orthogonalEdgeStyle;rounded=0;orthogonalLoop=1;jettySize=auto;html=1;exitX=1;exitY=0.5;exitDx=0;exitDy=0;entryX=0;entryY=0.5;entryDx=0;entryDy=0;entryPerimeter=0;" parent="1" source="M3Sqn7MmRrSv-XSWxqyc-5" target="M3Sqn7MmRrSv-XSWxqyc-65" edge="1">
          <mxGeometry relative="1" as="geometry" />
        </mxCell>
        <mxCell id="M3Sqn7MmRrSv-XSWxqyc-74" value="&amp;nbsp;抢锁&amp;nbsp;" style="edgeLabel;html=1;align=center;verticalAlign=middle;resizable=0;points=[];" parent="M3Sqn7MmRrSv-XSWxqyc-73" vertex="1" connectable="0">
          <mxGeometry x="0.5862" y="-1" relative="1" as="geometry">
            <mxPoint x="7" y="-1" as="offset" />
          </mxGeometry>
        </mxCell>
        <mxCell id="M3Sqn7MmRrSv-XSWxqyc-75" value="Processor" style="rounded=0;whiteSpace=wrap;html=1;fontStyle=1;fontSize=31;rotation=-90;fontColor=#666666;" parent="1" vertex="1">
          <mxGeometry x="1114" y="1471" width="443" height="90" as="geometry" />
        </mxCell>
        <mxCell id="JlwOOIvvGZTpa9u4inS7-1" value="Info" style="rounded=0;whiteSpace=wrap;html=1;fillColor=#dae8fc;strokeColor=#6c8ebf;glass=0;shadow=0;" vertex="1" parent="1">
          <mxGeometry x="545" y="650" width="40" height="20" as="geometry" />
        </mxCell>
        <mxCell id="JlwOOIvvGZTpa9u4inS7-2" value="全量更新" style="rounded=0;whiteSpace=wrap;html=1;fillColor=#dae8fc;strokeColor=#6c8ebf;glass=0;shadow=0;" vertex="1" parent="1">
          <mxGeometry x="585" y="650" width="70" height="20" as="geometry" />
        </mxCell>
        <mxCell id="JlwOOIvvGZTpa9u4inS7-3" value="Detail" style="rounded=0;whiteSpace=wrap;html=1;fillColor=#e1d5e7;strokeColor=#9673a6;" vertex="1" parent="1">
          <mxGeometry x="671" y="650" width="40" height="20" as="geometry" />
        </mxCell>
        <mxCell id="JlwOOIvvGZTpa9u4inS7-4" value="局部更新" style="rounded=0;whiteSpace=wrap;html=1;fillColor=#e1d5e7;strokeColor=#9673a6;" vertex="1" parent="1">
          <mxGeometry x="711" y="650" width="70" height="20" as="geometry" />
        </mxCell>
        <mxCell id="JlwOOIvvGZTpa9u4inS7-5" value="Extra" style="rounded=0;whiteSpace=wrap;html=1;fillColor=#ffe6cc;strokeColor=#d79b00;" vertex="1" parent="1">
          <mxGeometry x="795" y="650" width="40" height="20" as="geometry" />
        </mxCell>
        <mxCell id="JlwOOIvvGZTpa9u4inS7-6" value="局部更新" style="rounded=0;whiteSpace=wrap;html=1;fillColor=#ffe6cc;strokeColor=#d79b00;" vertex="1" parent="1">
          <mxGeometry x="835" y="650" width="70" height="20" as="geometry" />
        </mxCell>
        <mxCell id="JlwOOIvvGZTpa9u4inS7-13" style="edgeStyle=orthogonalEdgeStyle;rounded=0;orthogonalLoop=1;jettySize=auto;html=1;exitX=1;exitY=0.5;exitDx=0;exitDy=0;entryX=0;entryY=0.5;entryDx=0;entryDy=0;strokeColor=#808080;fontColor=#8F8F8F;" edge="1" parent="1" source="JlwOOIvvGZTpa9u4inS7-7" target="JlwOOIvvGZTpa9u4inS7-8">
          <mxGeometry relative="1" as="geometry" />
        </mxCell>
        <mxCell id="JlwOOIvvGZTpa9u4inS7-7" value="Diff Version" style="ellipse;whiteSpace=wrap;html=1;aspect=fixed;strokeColor=#808080;fontColor=#8F8F8F;" vertex="1" parent="1">
          <mxGeometry x="1104" y="1211" width="50" height="50" as="geometry" />
        </mxCell>
        <mxCell id="JlwOOIvvGZTpa9u4inS7-14" style="edgeStyle=orthogonalEdgeStyle;rounded=0;orthogonalLoop=1;jettySize=auto;html=1;exitX=1;exitY=0.5;exitDx=0;exitDy=0;entryX=0;entryY=0.5;entryDx=0;entryDy=0;strokeColor=#808080;fontColor=#8F8F8F;" edge="1" parent="1" source="JlwOOIvvGZTpa9u4inS7-8" target="JlwOOIvvGZTpa9u4inS7-11">
          <mxGeometry relative="1" as="geometry" />
        </mxCell>
        <mxCell id="JlwOOIvvGZTpa9u4inS7-8" value="Mutex Lock" style="ellipse;whiteSpace=wrap;html=1;aspect=fixed;strokeColor=#808080;fontColor=#8F8F8F;" vertex="1" parent="1">
          <mxGeometry x="1174" y="1211" width="50" height="50" as="geometry" />
        </mxCell>
        <mxCell id="JlwOOIvvGZTpa9u4inS7-12" style="edgeStyle=orthogonalEdgeStyle;rounded=0;orthogonalLoop=1;jettySize=auto;html=1;exitX=1;exitY=0.5;exitDx=0;exitDy=0;entryX=0;entryY=0.5;entryDx=0;entryDy=0;strokeColor=#808080;fontColor=#8F8F8F;" edge="1" parent="1" source="JlwOOIvvGZTpa9u4inS7-10" target="JlwOOIvvGZTpa9u4inS7-7">
          <mxGeometry relative="1" as="geometry" />
        </mxCell>
        <mxCell id="JlwOOIvvGZTpa9u4inS7-10" value="Start" style="rounded=1;whiteSpace=wrap;html=1;aspect=fixed;strokeColor=#808080;fontColor=#8F8F8F;" vertex="1" parent="1">
          <mxGeometry x="1015" y="1218.5" width="70" height="35" as="geometry" />
        </mxCell>
        <mxCell id="JlwOOIvvGZTpa9u4inS7-11" value="Processor" style="rounded=1;whiteSpace=wrap;html=1;aspect=fixed;strokeColor=#808080;fontColor=#8F8F8F;" vertex="1" parent="1">
          <mxGeometry x="1242" y="1218.5" width="70" height="35" as="geometry" />
        </mxCell>
        <mxCell id="JlwOOIvvGZTpa9u4inS7-16" value="&lt;font style=&quot;font-size: 21px;&quot;&gt;&lt;b&gt;概&lt;/b&gt;&lt;/font&gt;&lt;div&gt;&lt;font style=&quot;font-size: 21px;&quot;&gt;&lt;b&gt;览&lt;/b&gt;&lt;/font&gt;&lt;/div&gt;" style="rounded=0;whiteSpace=wrap;html=1;fontColor=#8F8F8F;strokeColor=#8F8F8F;" vertex="1" parent="1">
          <mxGeometry x="1322" y="1201" width="57" height="67" as="geometry" />
        </mxCell>
        <mxCell id="36dtRS3hENfDoWUXv9Cl-11" value="info 1" style="ellipse;whiteSpace=wrap;html=1;direction=north;textDirection=vertical-lr;verticalAlign=top;flipH=1;flipV=1;" parent="1" vertex="1">
          <mxGeometry x="535" y="768.62" width="31.5" height="52" as="geometry" />
        </mxCell>
      </root>
    </mxGraphModel>
  </diagram>
  <diagram id="Tqp2XJVRTVvHSAgEY1Wk" name="整体架构流程图">
    <mxGraphModel dx="2066" dy="1126" grid="1" gridSize="10" guides="1" tooltips="1" connect="1" arrows="1" fold="1" page="1" pageScale="1" pageWidth="827" pageHeight="1169" math="0" shadow="0">
      <root>
        <mxCell id="0" />
        <mxCell id="1" parent="0" />
        <mxCell id="CPgMsUURdu7e6G_IMagq-121" value="错误处理" style="whiteSpace=wrap;strokeWidth=2;" vertex="1" parent="1">
          <mxGeometry x="753" y="2546" width="768" height="384" as="geometry" />
        </mxCell>
        <mxCell id="CPgMsUURdu7e6G_IMagq-122" value="HTTP接口" style="whiteSpace=wrap;strokeWidth=2;" vertex="1" parent="1">
          <mxGeometry x="2393" y="455" width="241" height="822" as="geometry" />
        </mxCell>
        <mxCell id="CPgMsUURdu7e6G_IMagq-123" value="存储系统" style="whiteSpace=wrap;strokeWidth=2;" vertex="1" parent="1">
          <mxGeometry x="1562" y="2771" width="696" height="159" as="geometry" />
        </mxCell>
        <mxCell id="CPgMsUURdu7e6G_IMagq-124" value="Elasticsearch服务" style="whiteSpace=wrap;strokeWidth=2;" vertex="1" parent="1">
          <mxGeometry x="1671" y="2009" width="477" height="689" as="geometry" />
        </mxCell>
        <mxCell id="CPgMsUURdu7e6G_IMagq-125" value="数据访问" style="whiteSpace=wrap;strokeWidth=2;" vertex="1" parent="1">
          <mxGeometry x="1575" y="1504" width="541" height="432" as="geometry" />
        </mxCell>
        <mxCell id="CPgMsUURdu7e6G_IMagq-126" value="分布式锁机制" style="whiteSpace=wrap;strokeWidth=2;" vertex="1" parent="1">
          <mxGeometry x="217" y="2266" width="516" height="664" as="geometry" />
        </mxCell>
        <mxCell id="CPgMsUURdu7e6G_IMagq-127" value="消息处理中心" style="whiteSpace=wrap;strokeWidth=2;" vertex="1" parent="1">
          <mxGeometry x="170" y="455" width="1905" height="999" as="geometry" />
        </mxCell>
        <mxCell id="CPgMsUURdu7e6G_IMagq-128" value="Extension处理" style="whiteSpace=wrap;strokeWidth=2;" vertex="1" parent="1">
          <mxGeometry x="1060" y="728" width="551" height="701" as="geometry" />
        </mxCell>
        <mxCell id="CPgMsUURdu7e6G_IMagq-129" value="OrderDetail处理" style="whiteSpace=wrap;strokeWidth=2;" vertex="1" parent="1">
          <mxGeometry x="367" y="728" width="673" height="701" as="geometry" />
        </mxCell>
        <mxCell id="CPgMsUURdu7e6G_IMagq-130" value="OrderInfo处理" style="whiteSpace=wrap;strokeWidth=2;" vertex="1" parent="1">
          <mxGeometry x="1631" y="857" width="422" height="572" as="geometry" />
        </mxCell>
        <mxCell id="CPgMsUURdu7e6G_IMagq-131" value="程序启动" style="whiteSpace=wrap;strokeWidth=2;" vertex="1" parent="1">
          <mxGeometry x="2095" y="173" width="277" height="482" as="geometry" />
        </mxCell>
        <mxCell id="CPgMsUURdu7e6G_IMagq-132" value="消息源" style="whiteSpace=wrap;strokeWidth=2;" vertex="1" parent="1">
          <mxGeometry x="961" y="20" width="379" height="281" as="geometry" />
        </mxCell>
        <mxCell id="CPgMsUURdu7e6G_IMagq-133" value="Kafka Topic: xes_platform_order" style="whiteSpace=wrap;strokeWidth=2;" vertex="1" parent="1">
          <mxGeometry x="1021" y="45" width="260" height="78" as="geometry" />
        </mxCell>
        <mxCell id="CPgMsUURdu7e6G_IMagq-134" value="订单变更消息&#xa;order_info/order_detail/extension" style="whiteSpace=wrap;strokeWidth=2;" vertex="1" parent="1">
          <mxGeometry x="996" y="198" width="309" height="78" as="geometry" />
        </mxCell>
        <mxCell id="CPgMsUURdu7e6G_IMagq-135" value="main.go 启动" style="whiteSpace=wrap;strokeWidth=2;" vertex="1" parent="1">
          <mxGeometry x="2170" y="210" width="154" height="54" as="geometry" />
        </mxCell>
        <mxCell id="CPgMsUURdu7e6G_IMagq-136" value="consumer() 函数" style="whiteSpace=wrap;strokeWidth=2;" vertex="1" parent="1">
          <mxGeometry x="2146" y="351" width="177" height="54" as="geometry" />
        </mxCell>
        <mxCell id="CPgMsUURdu7e6G_IMagq-137" value="Kafka配置&#xa;- GroupID: test2&#xa;- OffsetNewest&#xa;- CommitInterval: 1s" style="whiteSpace=wrap;strokeWidth=2;" vertex="1" parent="1">
          <mxGeometry x="2130" y="492" width="207" height="126" as="geometry" />
        </mxCell>
        <mxCell id="CPgMsUURdu7e6G_IMagq-138" value="解析消息类型" style="rhombus;strokeWidth=2;whiteSpace=wrap;" vertex="1" parent="1">
          <mxGeometry x="1038" y="480" width="150" height="150" as="geometry" />
        </mxCell>
        <mxCell id="CPgMsUURdu7e6G_IMagq-139" value="解析OrderInfo消息" style="whiteSpace=wrap;strokeWidth=2;" vertex="1" parent="1">
          <mxGeometry x="1666" y="930" width="193" height="54" as="geometry" />
        </mxCell>
        <mxCell id="CPgMsUURdu7e6G_IMagq-140" value="检查TxStatus" style="rhombus;strokeWidth=2;whiteSpace=wrap;" vertex="1" parent="1">
          <mxGeometry x="1689" y="1105" width="147" height="147" as="geometry" />
        </mxCell>
        <mxCell id="CPgMsUURdu7e6G_IMagq-141" value="SyncOrder全量同步" style="whiteSpace=wrap;strokeWidth=2;" vertex="1" parent="1">
          <mxGeometry x="1821" y="1350" width="197" height="54" as="geometry" />
        </mxCell>
        <mxCell id="CPgMsUURdu7e6G_IMagq-142" value="解析OrderDetail消息" style="whiteSpace=wrap;strokeWidth=2;" vertex="1" parent="1">
          <mxGeometry x="445" y="753" width="207" height="54" as="geometry" />
        </mxCell>
        <mxCell id="CPgMsUURdu7e6G_IMagq-143" value="消息类型检查" style="rhombus;strokeWidth=2;whiteSpace=wrap;" vertex="1" parent="1">
          <mxGeometry x="474" y="882" width="150" height="150" as="geometry" />
        </mxCell>
        <mxCell id="CPgMsUURdu7e6G_IMagq-144" value="获取分布式锁" style="whiteSpace=wrap;strokeWidth=2;" vertex="1" parent="1">
          <mxGeometry x="414" y="1152" width="156" height="54" as="geometry" />
        </mxCell>
        <mxCell id="CPgMsUURdu7e6G_IMagq-145" value="updateOrderDetail" style="whiteSpace=wrap;strokeWidth=2;" vertex="1" parent="1">
          <mxGeometry x="811" y="1350" width="193" height="54" as="geometry" />
        </mxCell>
        <mxCell id="CPgMsUURdu7e6G_IMagq-146" value="解析Extension消息" style="whiteSpace=wrap;strokeWidth=2;" vertex="1" parent="1">
          <mxGeometry x="1186" y="753" width="193" height="54" as="geometry" />
        </mxCell>
        <mxCell id="CPgMsUURdu7e6G_IMagq-147" value="消息类型检查" style="rhombus;strokeWidth=2;whiteSpace=wrap;" vertex="1" parent="1">
          <mxGeometry x="1208" y="882" width="150" height="150" as="geometry" />
        </mxCell>
        <mxCell id="CPgMsUURdu7e6G_IMagq-148" value="获取分布式锁" style="whiteSpace=wrap;strokeWidth=2;" vertex="1" parent="1">
          <mxGeometry x="1104" y="1152" width="156" height="54" as="geometry" />
        </mxCell>
        <mxCell id="CPgMsUURdu7e6G_IMagq-149" value="updateExtentions" style="whiteSpace=wrap;strokeWidth=2;" vertex="1" parent="1">
          <mxGeometry x="1391" y="1350" width="185" height="54" as="geometry" />
        </mxCell>
        <mxCell id="CPgMsUURdu7e6G_IMagq-150" value="Lock Service" style="whiteSpace=wrap;strokeWidth=2;" vertex="1" parent="1">
          <mxGeometry x="398" y="2291" width="149" height="54" as="geometry" />
        </mxCell>
        <mxCell id="CPgMsUURdu7e6G_IMagq-151" value="版本检查&#xa;checkVersionNeedProcess" style="whiteSpace=wrap;strokeWidth=2;" vertex="1" parent="1">
          <mxGeometry x="352" y="2395" width="242" height="78" as="geometry" />
        </mxCell>
        <mxCell id="CPgMsUURdu7e6G_IMagq-152" value="Redis锁操作&#xa;SETNX + SET" style="whiteSpace=wrap;strokeWidth=2;" vertex="1" parent="1">
          <mxGeometry x="258" y="2583" width="148" height="78" as="geometry" />
        </mxCell>
        <mxCell id="CPgMsUURdu7e6G_IMagq-153" value="指数退避重试&#xa;backoff *= 1.5" style="whiteSpace=wrap;strokeWidth=2;" vertex="1" parent="1">
          <mxGeometry x="252" y="2812" width="160" height="78" as="geometry" />
        </mxCell>
        <mxCell id="CPgMsUURdu7e6G_IMagq-154" value="数据库查询&#xa;- OrderInfo&#xa;- OrderDetail&#xa;- Extension" style="whiteSpace=wrap;strokeWidth=2;" vertex="1" parent="1">
          <mxGeometry x="1664" y="1529" width="154" height="126" as="geometry" />
        </mxCell>
        <mxCell id="CPgMsUURdu7e6G_IMagq-155" value="时间过滤&#xa;命令行请求检查" style="whiteSpace=wrap;strokeWidth=2;" vertex="1" parent="1">
          <mxGeometry x="1754" y="1705" width="172" height="78" as="geometry" />
        </mxCell>
        <mxCell id="CPgMsUURdu7e6G_IMagq-156" value="数据合并&#xa;JSON序列化" style="whiteSpace=wrap;strokeWidth=2;" vertex="1" parent="1">
          <mxGeometry x="1768" y="1833" width="144" height="78" as="geometry" />
        </mxCell>
        <mxCell id="CPgMsUURdu7e6G_IMagq-157" value="EsService" style="whiteSpace=wrap;strokeWidth=2;" vertex="1" parent="1">
          <mxGeometry x="1777" y="2034" width="127" height="54" as="geometry" />
        </mxCell>
        <mxCell id="CPgMsUURdu7e6G_IMagq-158" value="并发控制&#xa;最大100并发" style="whiteSpace=wrap;strokeWidth=2;" vertex="1" parent="1">
          <mxGeometry x="1766" y="2138" width="149" height="78" as="geometry" />
        </mxCell>
        <mxCell id="CPgMsUURdu7e6G_IMagq-159" value="查询现有文档" style="whiteSpace=wrap;strokeWidth=2;" vertex="1" parent="1">
          <mxGeometry x="1762" y="2291" width="156" height="54" as="geometry" />
        </mxCell>
        <mxCell id="CPgMsUURdu7e6G_IMagq-160" value="数据差异对比&#xa;jsondiff" style="whiteSpace=wrap;strokeWidth=2;" vertex="1" parent="1">
          <mxGeometry x="1706" y="2395" width="156" height="78" as="geometry" />
        </mxCell>
        <mxCell id="CPgMsUURdu7e6G_IMagq-161" value="ES文档更新/创建" style="whiteSpace=wrap;strokeWidth=2;" vertex="1" parent="1">
          <mxGeometry x="1932" y="2595" width="181" height="54" as="geometry" />
        </mxCell>
        <mxCell id="CPgMsUURdu7e6G_IMagq-162" value="MySQL数据库&#xa;分库分表" style="shape=cylinder3;boundedLbl=1;backgroundOutline=1;size=10;strokeWidth=2;whiteSpace=wrap;" vertex="1" parent="1">
          <mxGeometry x="1597" y="2802" width="109" height="98" as="geometry" />
        </mxCell>
        <mxCell id="CPgMsUURdu7e6G_IMagq-163" value="Elasticsearch&#xa;索引: xes_platform_order" style="shape=cylinder3;boundedLbl=1;backgroundOutline=1;size=10;strokeWidth=2;whiteSpace=wrap;" vertex="1" parent="1">
          <mxGeometry x="1860" y="2796" width="199" height="109" as="geometry" />
        </mxCell>
        <mxCell id="CPgMsUURdu7e6G_IMagq-164" value="Redis缓存&#xa;锁 + 版本控制" style="shape=cylinder3;boundedLbl=1;backgroundOutline=1;size=10;strokeWidth=2;whiteSpace=wrap;" vertex="1" parent="1">
          <mxGeometry x="2109" y="2802" width="113" height="99" as="geometry" />
        </mxCell>
        <mxCell id="CPgMsUURdu7e6G_IMagq-165" value="HTTP请求" style="whiteSpace=wrap;strokeWidth=2;" vertex="1" parent="1">
          <mxGeometry x="2448" y="528" width="130" height="54" as="geometry" />
        </mxCell>
        <mxCell id="CPgMsUURdu7e6G_IMagq-166" value="Ctrl控制器" style="whiteSpace=wrap;strokeWidth=2;" vertex="1" parent="1">
          <mxGeometry x="2446" y="753" width="135" height="54" as="geometry" />
        </mxCell>
        <mxCell id="CPgMsUURdu7e6G_IMagq-167" value="模板引擎" style="whiteSpace=wrap;strokeWidth=2;" vertex="1" parent="1">
          <mxGeometry x="2451" y="930" width="124" height="54" as="geometry" />
        </mxCell>
        <mxCell id="CPgMsUURdu7e6G_IMagq-168" value="StreamManager" style="whiteSpace=wrap;strokeWidth=2;" vertex="1" parent="1">
          <mxGeometry x="2428" y="1152" width="171" height="54" as="geometry" />
        </mxCell>
        <mxCell id="CPgMsUURdu7e6G_IMagq-169" value="错误日志记录" style="whiteSpace=wrap;strokeWidth=2;" vertex="1" parent="1">
          <mxGeometry x="1191" y="2595" width="156" height="54" as="geometry" />
        </mxCell>
        <mxCell id="CPgMsUURdu7e6G_IMagq-170" value="重试机制&#xa;- 锁冲突重试&#xa;- 网络错误重试" style="whiteSpace=wrap;strokeWidth=2;" vertex="1" parent="1">
          <mxGeometry x="788" y="2571" width="167" height="102" as="geometry" />
        </mxCell>
        <mxCell id="CPgMsUURdu7e6G_IMagq-171" value="异常恢复&#xa;util.Recovery()" style="whiteSpace=wrap;strokeWidth=2;" vertex="1" parent="1">
          <mxGeometry x="880" y="2812" width="167" height="78" as="geometry" />
        </mxCell>
        <mxCell id="CPgMsUURdu7e6G_IMagq-172" value="" style="curved=1;startArrow=none;endArrow=block;exitX=0.5;exitY=1;entryX=0.5;entryY=0;rounded=0;" edge="1" parent="1" source="CPgMsUURdu7e6G_IMagq-133" target="CPgMsUURdu7e6G_IMagq-134">
          <mxGeometry relative="1" as="geometry">
            <Array as="points" />
          </mxGeometry>
        </mxCell>
        <mxCell id="CPgMsUURdu7e6G_IMagq-173" value="" style="curved=1;startArrow=none;endArrow=block;exitX=0.5;exitY=1;entryX=0.29;entryY=0;rounded=0;" edge="1" parent="1" source="CPgMsUURdu7e6G_IMagq-134" target="CPgMsUURdu7e6G_IMagq-136">
          <mxGeometry relative="1" as="geometry">
            <Array as="points">
              <mxPoint x="1151" y="301" />
              <mxPoint x="2165" y="326" />
            </Array>
          </mxGeometry>
        </mxCell>
        <mxCell id="CPgMsUURdu7e6G_IMagq-174" value="" style="curved=1;startArrow=none;endArrow=block;exitX=0.5;exitY=1;entryX=0.54;entryY=0;rounded=0;" edge="1" parent="1" source="CPgMsUURdu7e6G_IMagq-135" target="CPgMsUURdu7e6G_IMagq-136">
          <mxGeometry relative="1" as="geometry">
            <Array as="points">
              <mxPoint x="2247" y="326" />
            </Array>
          </mxGeometry>
        </mxCell>
        <mxCell id="CPgMsUURdu7e6G_IMagq-175" value="" style="curved=1;startArrow=none;endArrow=block;exitX=0.5;exitY=1;entryX=0.5;entryY=0;rounded=0;" edge="1" parent="1" source="CPgMsUURdu7e6G_IMagq-136" target="CPgMsUURdu7e6G_IMagq-137">
          <mxGeometry relative="1" as="geometry">
            <Array as="points" />
          </mxGeometry>
        </mxCell>
        <mxCell id="CPgMsUURdu7e6G_IMagq-176" value="" style="curved=1;startArrow=none;endArrow=block;exitX=0.29;exitY=1;entryX=1;entryY=0.45;rounded=0;" edge="1" parent="1" source="CPgMsUURdu7e6G_IMagq-136" target="CPgMsUURdu7e6G_IMagq-138">
          <mxGeometry relative="1" as="geometry">
            <Array as="points">
              <mxPoint x="2165" y="430" />
              <mxPoint x="2165" y="455" />
            </Array>
          </mxGeometry>
        </mxCell>
        <mxCell id="CPgMsUURdu7e6G_IMagq-177" value="order_info" style="curved=1;startArrow=none;endArrow=block;exitX=1;exitY=0.58;entryX=0.5;entryY=0;rounded=0;" edge="1" parent="1" source="CPgMsUURdu7e6G_IMagq-138" target="CPgMsUURdu7e6G_IMagq-139">
          <mxGeometry relative="1" as="geometry">
            <Array as="points">
              <mxPoint x="1762" y="655" />
            </Array>
          </mxGeometry>
        </mxCell>
        <mxCell id="CPgMsUURdu7e6G_IMagq-178" value="order_detail" style="curved=1;startArrow=none;endArrow=block;exitX=0;exitY=0.59;entryX=0.5;entryY=0;rounded=0;" edge="1" parent="1" source="CPgMsUURdu7e6G_IMagq-138" target="CPgMsUURdu7e6G_IMagq-142">
          <mxGeometry relative="1" as="geometry">
            <Array as="points">
              <mxPoint x="549" y="655" />
            </Array>
          </mxGeometry>
        </mxCell>
        <mxCell id="CPgMsUURdu7e6G_IMagq-179" value="extension" style="curved=1;startArrow=none;endArrow=block;exitX=1;exitY=0.79;entryX=0.5;entryY=0;rounded=0;" edge="1" parent="1" source="CPgMsUURdu7e6G_IMagq-138" target="CPgMsUURdu7e6G_IMagq-146">
          <mxGeometry relative="1" as="geometry">
            <Array as="points">
              <mxPoint x="1283" y="655" />
            </Array>
          </mxGeometry>
        </mxCell>
        <mxCell id="CPgMsUURdu7e6G_IMagq-180" value="商品订单" style="curved=1;startArrow=none;endArrow=block;exitX=0;exitY=0.57;entryX=0;entryY=0.09;rounded=0;" edge="1" parent="1" source="CPgMsUURdu7e6G_IMagq-138" target="CPgMsUURdu7e6G_IMagq-169">
          <mxGeometry relative="1" as="geometry">
            <Array as="points">
              <mxPoint x="347" y="655" />
              <mxPoint x="347" y="1429" />
              <mxPoint x="1004" y="1454" />
              <mxPoint x="1004" y="2546" />
            </Array>
          </mxGeometry>
        </mxCell>
        <mxCell id="CPgMsUURdu7e6G_IMagq-181" value="" style="curved=1;startArrow=none;endArrow=block;exitX=0.5;exitY=1;entryX=0.5;entryY=0;rounded=0;" edge="1" parent="1" source="CPgMsUURdu7e6G_IMagq-139" target="CPgMsUURdu7e6G_IMagq-140">
          <mxGeometry relative="1" as="geometry">
            <Array as="points" />
          </mxGeometry>
        </mxCell>
        <mxCell id="CPgMsUURdu7e6G_IMagq-182" value="TxStatus=1" style="curved=1;startArrow=none;endArrow=block;exitX=1;exitY=0.89;entryX=0.43;entryY=0.01;rounded=0;" edge="1" parent="1" source="CPgMsUURdu7e6G_IMagq-140" target="CPgMsUURdu7e6G_IMagq-141">
          <mxGeometry relative="1" as="geometry">
            <Array as="points">
              <mxPoint x="1889" y="1277" />
              <mxPoint x="1889" y="1314" />
            </Array>
          </mxGeometry>
        </mxCell>
        <mxCell id="CPgMsUURdu7e6G_IMagq-183" value="TxStatus≠1" style="curved=1;startArrow=none;endArrow=block;exitX=0.27;exitY=1;entryX=0.56;entryY=0.01;rounded=0;" edge="1" parent="1" source="CPgMsUURdu7e6G_IMagq-140" target="CPgMsUURdu7e6G_IMagq-169">
          <mxGeometry relative="1" as="geometry">
            <Array as="points">
              <mxPoint x="1717" y="1277" />
              <mxPoint x="1717" y="1429" />
              <mxPoint x="1296" y="1454" />
              <mxPoint x="1296" y="2546" />
            </Array>
          </mxGeometry>
        </mxCell>
        <mxCell id="CPgMsUURdu7e6G_IMagq-184" value="" style="curved=1;startArrow=none;endArrow=block;exitX=0.5;exitY=1;entryX=0.5;entryY=0;rounded=0;" edge="1" parent="1" source="CPgMsUURdu7e6G_IMagq-142" target="CPgMsUURdu7e6G_IMagq-143">
          <mxGeometry relative="1" as="geometry">
            <Array as="points" />
          </mxGeometry>
        </mxCell>
        <mxCell id="CPgMsUURdu7e6G_IMagq-185" value="UPDATE" style="curved=1;startArrow=none;endArrow=block;exitX=0.25;exitY=1;entryX=0.5;entryY=-0.01;rounded=0;" edge="1" parent="1" source="CPgMsUURdu7e6G_IMagq-143" target="CPgMsUURdu7e6G_IMagq-144">
          <mxGeometry relative="1" as="geometry">
            <Array as="points">
              <mxPoint x="492" y="1069" />
            </Array>
          </mxGeometry>
        </mxCell>
        <mxCell id="CPgMsUURdu7e6G_IMagq-186" value="非UPDATE" style="curved=1;startArrow=none;endArrow=block;exitX=0.75;exitY=1;entryX=0.7;entryY=0.01;rounded=0;" edge="1" parent="1" source="CPgMsUURdu7e6G_IMagq-143" target="CPgMsUURdu7e6G_IMagq-169">
          <mxGeometry relative="1" as="geometry">
            <Array as="points">
              <mxPoint x="605" y="1069" />
              <mxPoint x="605" y="1429" />
              <mxPoint x="1357" y="1454" />
              <mxPoint x="1357" y="2546" />
            </Array>
          </mxGeometry>
        </mxCell>
        <mxCell id="CPgMsUURdu7e6G_IMagq-187" value="" style="curved=1;startArrow=none;endArrow=block;exitX=0.44;exitY=0.99;entryX=0.07;entryY=0.01;rounded=0;" edge="1" parent="1" source="CPgMsUURdu7e6G_IMagq-144" target="CPgMsUURdu7e6G_IMagq-150">
          <mxGeometry relative="1" as="geometry">
            <Array as="points">
              <mxPoint x="456" y="1277" />
              <mxPoint x="456" y="1429" />
              <mxPoint x="349" y="1454" />
              <mxPoint x="349" y="2266" />
            </Array>
          </mxGeometry>
        </mxCell>
        <mxCell id="CPgMsUURdu7e6G_IMagq-188" value="成功" style="curved=1;startArrow=none;endArrow=block;exitX=1;exitY=0.84;entryX=0.5;entryY=0.01;rounded=0;" edge="1" parent="1" source="CPgMsUURdu7e6G_IMagq-144" target="CPgMsUURdu7e6G_IMagq-145">
          <mxGeometry relative="1" as="geometry">
            <Array as="points">
              <mxPoint x="908" y="1277" />
            </Array>
          </mxGeometry>
        </mxCell>
        <mxCell id="CPgMsUURdu7e6G_IMagq-189" value="失败" style="curved=1;startArrow=none;endArrow=block;exitX=0.58;exitY=0.99;entryX=0.34;entryY=0;rounded=0;" edge="1" parent="1" source="CPgMsUURdu7e6G_IMagq-144" target="CPgMsUURdu7e6G_IMagq-170">
          <mxGeometry relative="1" as="geometry">
            <Array as="points">
              <mxPoint x="539" y="1277" />
              <mxPoint x="539" y="1429" />
              <mxPoint x="832" y="1454" />
              <mxPoint x="832" y="2546" />
            </Array>
          </mxGeometry>
        </mxCell>
        <mxCell id="CPgMsUURdu7e6G_IMagq-190" value="" style="curved=1;startArrow=none;endArrow=block;exitX=0.5;exitY=1;entryX=0.5;entryY=0;rounded=0;" edge="1" parent="1" source="CPgMsUURdu7e6G_IMagq-146" target="CPgMsUURdu7e6G_IMagq-147">
          <mxGeometry relative="1" as="geometry">
            <Array as="points" />
          </mxGeometry>
        </mxCell>
        <mxCell id="CPgMsUURdu7e6G_IMagq-191" value="UPDATE" style="curved=1;startArrow=none;endArrow=block;exitX=0.05;exitY=1;entryX=0.5;entryY=-0.01;rounded=0;" edge="1" parent="1" source="CPgMsUURdu7e6G_IMagq-147" target="CPgMsUURdu7e6G_IMagq-148">
          <mxGeometry relative="1" as="geometry">
            <Array as="points">
              <mxPoint x="1182" y="1069" />
            </Array>
          </mxGeometry>
        </mxCell>
        <mxCell id="CPgMsUURdu7e6G_IMagq-192" value="非UPDATE" style="curved=1;startArrow=none;endArrow=block;exitX=0.83;exitY=1;entryX=0.92;entryY=0.01;rounded=0;" edge="1" parent="1" source="CPgMsUURdu7e6G_IMagq-147" target="CPgMsUURdu7e6G_IMagq-169">
          <mxGeometry relative="1" as="geometry">
            <Array as="points">
              <mxPoint x="1356" y="1069" />
              <mxPoint x="1356" y="1429" />
              <mxPoint x="1452" y="1454" />
              <mxPoint x="1452" y="2546" />
            </Array>
          </mxGeometry>
        </mxCell>
        <mxCell id="CPgMsUURdu7e6G_IMagq-193" value="" style="curved=1;startArrow=none;endArrow=block;exitX=0.44;exitY=0.99;entryX=1;entryY=0.09;rounded=0;" edge="1" parent="1" source="CPgMsUURdu7e6G_IMagq-148" target="CPgMsUURdu7e6G_IMagq-150">
          <mxGeometry relative="1" as="geometry">
            <Array as="points">
              <mxPoint x="1146" y="1277" />
              <mxPoint x="1146" y="1429" />
              <mxPoint x="645" y="1454" />
              <mxPoint x="645" y="2266" />
            </Array>
          </mxGeometry>
        </mxCell>
        <mxCell id="CPgMsUURdu7e6G_IMagq-194" value="成功" style="curved=1;startArrow=none;endArrow=block;exitX=1;exitY=0.97;entryX=0.5;entryY=0.01;rounded=0;" edge="1" parent="1" source="CPgMsUURdu7e6G_IMagq-148" target="CPgMsUURdu7e6G_IMagq-149">
          <mxGeometry relative="1" as="geometry">
            <Array as="points">
              <mxPoint x="1483" y="1277" />
            </Array>
          </mxGeometry>
        </mxCell>
        <mxCell id="CPgMsUURdu7e6G_IMagq-195" value="失败" style="curved=1;startArrow=none;endArrow=block;exitX=0.69;exitY=0.99;entryX=0.82;entryY=0;rounded=0;" edge="1" parent="1" source="CPgMsUURdu7e6G_IMagq-148" target="CPgMsUURdu7e6G_IMagq-170">
          <mxGeometry relative="1" as="geometry">
            <Array as="points">
              <mxPoint x="1289" y="1277" />
              <mxPoint x="1289" y="1429" />
              <mxPoint x="950" y="1454" />
              <mxPoint x="950" y="2546" />
            </Array>
          </mxGeometry>
        </mxCell>
        <mxCell id="CPgMsUURdu7e6G_IMagq-196" value="" style="curved=1;startArrow=none;endArrow=block;exitX=0.5;exitY=1.01;entryX=0.5;entryY=0;rounded=0;" edge="1" parent="1" source="CPgMsUURdu7e6G_IMagq-150" target="CPgMsUURdu7e6G_IMagq-151">
          <mxGeometry relative="1" as="geometry">
            <Array as="points" />
          </mxGeometry>
        </mxCell>
        <mxCell id="CPgMsUURdu7e6G_IMagq-197" value="" style="curved=1;startArrow=none;endArrow=block;exitX=0.72;exitY=1;entryX=0;entryY=0.46;rounded=0;" edge="1" parent="1" source="CPgMsUURdu7e6G_IMagq-151" target="CPgMsUURdu7e6G_IMagq-164">
          <mxGeometry relative="1" as="geometry">
            <Array as="points">
              <mxPoint x="577" y="2510" />
              <mxPoint x="577" y="2771" />
            </Array>
          </mxGeometry>
        </mxCell>
        <mxCell id="CPgMsUURdu7e6G_IMagq-198" value="需要处理" style="curved=1;startArrow=none;endArrow=block;exitX=0.2;exitY=1;entryX=0.5;entryY=0;rounded=0;" edge="1" parent="1" source="CPgMsUURdu7e6G_IMagq-151" target="CPgMsUURdu7e6G_IMagq-152">
          <mxGeometry relative="1" as="geometry">
            <Array as="points">
              <mxPoint x="332" y="2510" />
            </Array>
          </mxGeometry>
        </mxCell>
        <mxCell id="CPgMsUURdu7e6G_IMagq-199" value="跳过" style="curved=1;startArrow=none;endArrow=block;exitX=0.89;exitY=1;entryX=0;entryY=0.33;rounded=0;" edge="1" parent="1" source="CPgMsUURdu7e6G_IMagq-151" target="CPgMsUURdu7e6G_IMagq-169">
          <mxGeometry relative="1" as="geometry">
            <Array as="points">
              <mxPoint x="655" y="2510" />
              <mxPoint x="655" y="2546" />
            </Array>
          </mxGeometry>
        </mxCell>
        <mxCell id="CPgMsUURdu7e6G_IMagq-200" value="失败" style="curved=1;startArrow=none;endArrow=block;exitX=0.36;exitY=1;entryX=0.38;entryY=0;rounded=0;" edge="1" parent="1" source="CPgMsUURdu7e6G_IMagq-152" target="CPgMsUURdu7e6G_IMagq-153">
          <mxGeometry relative="1" as="geometry">
            <Array as="points">
              <mxPoint x="293" y="2698" />
              <mxPoint x="293" y="2771" />
            </Array>
          </mxGeometry>
        </mxCell>
        <mxCell id="CPgMsUURdu7e6G_IMagq-201" value="" style="curved=1;startArrow=none;endArrow=block;exitX=0.63;exitY=0;entryX=0.65;entryY=1;rounded=0;" edge="1" parent="1" source="CPgMsUURdu7e6G_IMagq-153" target="CPgMsUURdu7e6G_IMagq-152">
          <mxGeometry relative="1" as="geometry">
            <Array as="points">
              <mxPoint x="376" y="2771" />
              <mxPoint x="376" y="2698" />
            </Array>
          </mxGeometry>
        </mxCell>
        <mxCell id="CPgMsUURdu7e6G_IMagq-202" value="" style="curved=1;startArrow=none;endArrow=block;exitX=0.5;exitY=1.01;entryX=0.08;entryY=0;rounded=0;" edge="1" parent="1" source="CPgMsUURdu7e6G_IMagq-141" target="CPgMsUURdu7e6G_IMagq-154">
          <mxGeometry relative="1" as="geometry">
            <Array as="points">
              <mxPoint x="1919" y="1429" />
              <mxPoint x="1651" y="1454" />
              <mxPoint x="1651" y="1504" />
            </Array>
          </mxGeometry>
        </mxCell>
        <mxCell id="CPgMsUURdu7e6G_IMagq-203" value="" style="curved=1;startArrow=none;endArrow=block;exitX=0.5;exitY=1.01;entryX=0.17;entryY=0;rounded=0;" edge="1" parent="1" source="CPgMsUURdu7e6G_IMagq-145" target="CPgMsUURdu7e6G_IMagq-154">
          <mxGeometry relative="1" as="geometry">
            <Array as="points">
              <mxPoint x="908" y="1429" />
              <mxPoint x="1671" y="1454" />
              <mxPoint x="1671" y="1504" />
            </Array>
          </mxGeometry>
        </mxCell>
        <mxCell id="CPgMsUURdu7e6G_IMagq-204" value="" style="curved=1;startArrow=none;endArrow=block;exitX=0.5;exitY=1.01;entryX=1;entryY=0.32;rounded=0;" edge="1" parent="1" source="CPgMsUURdu7e6G_IMagq-149" target="CPgMsUURdu7e6G_IMagq-154">
          <mxGeometry relative="1" as="geometry">
            <Array as="points">
              <mxPoint x="1483" y="1429" />
              <mxPoint x="2043" y="1454" />
              <mxPoint x="2043" y="1504" />
            </Array>
          </mxGeometry>
        </mxCell>
        <mxCell id="CPgMsUURdu7e6G_IMagq-205" value="" style="curved=1;startArrow=none;endArrow=block;exitX=0.08;exitY=1;entryX=0.49;entryY=0;rounded=0;" edge="1" parent="1" source="CPgMsUURdu7e6G_IMagq-154" target="CPgMsUURdu7e6G_IMagq-162">
          <mxGeometry relative="1" as="geometry">
            <Array as="points">
              <mxPoint x="1651" y="1680" />
            </Array>
          </mxGeometry>
        </mxCell>
        <mxCell id="CPgMsUURdu7e6G_IMagq-206" value="" style="curved=1;startArrow=none;endArrow=block;exitX=0.96;exitY=1;entryX=0.5;entryY=0;rounded=0;" edge="1" parent="1" source="CPgMsUURdu7e6G_IMagq-154" target="CPgMsUURdu7e6G_IMagq-155">
          <mxGeometry relative="1" as="geometry">
            <Array as="points">
              <mxPoint x="1840" y="1680" />
            </Array>
          </mxGeometry>
        </mxCell>
        <mxCell id="CPgMsUURdu7e6G_IMagq-207" value="" style="curved=1;startArrow=none;endArrow=block;exitX=0.5;exitY=1;entryX=0.5;entryY=0;rounded=0;" edge="1" parent="1" source="CPgMsUURdu7e6G_IMagq-155" target="CPgMsUURdu7e6G_IMagq-156">
          <mxGeometry relative="1" as="geometry">
            <Array as="points" />
          </mxGeometry>
        </mxCell>
        <mxCell id="CPgMsUURdu7e6G_IMagq-208" value="" style="curved=1;startArrow=none;endArrow=block;exitX=0.5;exitY=1;entryX=0.5;entryY=0.01;rounded=0;" edge="1" parent="1" source="CPgMsUURdu7e6G_IMagq-156" target="CPgMsUURdu7e6G_IMagq-157">
          <mxGeometry relative="1" as="geometry">
            <Array as="points" />
          </mxGeometry>
        </mxCell>
        <mxCell id="CPgMsUURdu7e6G_IMagq-209" value="" style="curved=1;startArrow=none;endArrow=block;exitX=0.5;exitY=1.01;entryX=0.5;entryY=0;rounded=0;" edge="1" parent="1" source="CPgMsUURdu7e6G_IMagq-157" target="CPgMsUURdu7e6G_IMagq-158">
          <mxGeometry relative="1" as="geometry">
            <Array as="points" />
          </mxGeometry>
        </mxCell>
        <mxCell id="CPgMsUURdu7e6G_IMagq-210" value="" style="curved=1;startArrow=none;endArrow=block;exitX=0.5;exitY=1;entryX=0.5;entryY=0.01;rounded=0;" edge="1" parent="1" source="CPgMsUURdu7e6G_IMagq-158" target="CPgMsUURdu7e6G_IMagq-159">
          <mxGeometry relative="1" as="geometry">
            <Array as="points" />
          </mxGeometry>
        </mxCell>
        <mxCell id="CPgMsUURdu7e6G_IMagq-211" value="" style="curved=1;startArrow=none;endArrow=block;exitX=0.69;exitY=1.01;entryX=0.28;entryY=0;rounded=0;" edge="1" parent="1" source="CPgMsUURdu7e6G_IMagq-159" target="CPgMsUURdu7e6G_IMagq-163">
          <mxGeometry relative="1" as="geometry">
            <Array as="points">
              <mxPoint x="1897" y="2370" />
              <mxPoint x="1897" y="2771" />
            </Array>
          </mxGeometry>
        </mxCell>
        <mxCell id="CPgMsUURdu7e6G_IMagq-212" value="" style="curved=1;startArrow=none;endArrow=block;exitX=0.31;exitY=1.01;entryX=0.5;entryY=0;rounded=0;" edge="1" parent="1" source="CPgMsUURdu7e6G_IMagq-159" target="CPgMsUURdu7e6G_IMagq-160">
          <mxGeometry relative="1" as="geometry">
            <Array as="points">
              <mxPoint x="1784" y="2370" />
            </Array>
          </mxGeometry>
        </mxCell>
        <mxCell id="CPgMsUURdu7e6G_IMagq-213" value="有差异" style="curved=1;startArrow=none;endArrow=block;exitX=1;exitY=0.82;entryX=0.5;entryY=0.01;rounded=0;" edge="1" parent="1" source="CPgMsUURdu7e6G_IMagq-160" target="CPgMsUURdu7e6G_IMagq-161">
          <mxGeometry relative="1" as="geometry">
            <Array as="points">
              <mxPoint x="2022" y="2510" />
            </Array>
          </mxGeometry>
        </mxCell>
        <mxCell id="CPgMsUURdu7e6G_IMagq-214" value="无差异" style="curved=1;startArrow=none;endArrow=block;exitX=0.5;exitY=1;entryX=1;entryY=0.29;rounded=0;" edge="1" parent="1" source="CPgMsUURdu7e6G_IMagq-160" target="CPgMsUURdu7e6G_IMagq-169">
          <mxGeometry relative="1" as="geometry">
            <Array as="points">
              <mxPoint x="1784" y="2546" />
            </Array>
          </mxGeometry>
        </mxCell>
        <mxCell id="CPgMsUURdu7e6G_IMagq-215" value="" style="curved=1;startArrow=none;endArrow=block;exitX=0.5;exitY=1.01;entryX=0.72;entryY=0;rounded=0;" edge="1" parent="1" source="CPgMsUURdu7e6G_IMagq-161" target="CPgMsUURdu7e6G_IMagq-163">
          <mxGeometry relative="1" as="geometry">
            <Array as="points">
              <mxPoint x="2022" y="2771" />
            </Array>
          </mxGeometry>
        </mxCell>
        <mxCell id="CPgMsUURdu7e6G_IMagq-216" value="" style="curved=1;startArrow=none;endArrow=block;exitX=0.5;exitY=1;entryX=0.5;entryY=0;rounded=0;" edge="1" parent="1" source="CPgMsUURdu7e6G_IMagq-165" target="CPgMsUURdu7e6G_IMagq-166">
          <mxGeometry relative="1" as="geometry">
            <Array as="points" />
          </mxGeometry>
        </mxCell>
        <mxCell id="CPgMsUURdu7e6G_IMagq-217" value="" style="curved=1;startArrow=none;endArrow=block;exitX=0.5;exitY=1;entryX=0.5;entryY=0;rounded=0;" edge="1" parent="1" source="CPgMsUURdu7e6G_IMagq-166" target="CPgMsUURdu7e6G_IMagq-167">
          <mxGeometry relative="1" as="geometry">
            <Array as="points" />
          </mxGeometry>
        </mxCell>
        <mxCell id="CPgMsUURdu7e6G_IMagq-218" value="" style="curved=1;startArrow=none;endArrow=block;exitX=0.5;exitY=1;entryX=0.5;entryY=-0.01;rounded=0;" edge="1" parent="1" source="CPgMsUURdu7e6G_IMagq-167" target="CPgMsUURdu7e6G_IMagq-168">
          <mxGeometry relative="1" as="geometry">
            <Array as="points" />
          </mxGeometry>
        </mxCell>
        <mxCell id="CPgMsUURdu7e6G_IMagq-219" value="" style="curved=1;startArrow=none;endArrow=block;exitX=0.5;exitY=0.99;entryX=0.62;entryY=0.01;rounded=0;" edge="1" parent="1" source="CPgMsUURdu7e6G_IMagq-168" target="CPgMsUURdu7e6G_IMagq-141">
          <mxGeometry relative="1" as="geometry">
            <Array as="points">
              <mxPoint x="2513" y="1277" />
              <mxPoint x="1976" y="1314" />
            </Array>
          </mxGeometry>
        </mxCell>
        <mxCell id="CPgMsUURdu7e6G_IMagq-220" value="" style="curved=1;startArrow=none;endArrow=block;exitX=0.5;exitY=1;entryX=0.23;entryY=0;rounded=0;" edge="1" parent="1" source="CPgMsUURdu7e6G_IMagq-170" target="CPgMsUURdu7e6G_IMagq-171">
          <mxGeometry relative="1" as="geometry">
            <Array as="points">
              <mxPoint x="871" y="2771" />
            </Array>
          </mxGeometry>
        </mxCell>
        <mxCell id="CPgMsUURdu7e6G_IMagq-221" value="" style="curved=1;startArrow=none;endArrow=block;exitX=0.5;exitY=1.01;entryX=1;entryY=0.22;rounded=0;" edge="1" parent="1" source="CPgMsUURdu7e6G_IMagq-169" target="CPgMsUURdu7e6G_IMagq-171">
          <mxGeometry relative="1" as="geometry">
            <Array as="points">
              <mxPoint x="1269" y="2771" />
            </Array>
          </mxGeometry>
        </mxCell>
      </root>
    </mxGraphModel>
  </diagram>
</mxfile>
